<svg width="36" height="36" viewBox="0 0 36 36" fill="none" xmlns="http://www.w3.org/2000/svg">
<g clip-path="url(#clip0_97_1150)">
<circle cx="18" cy="18" r="16.7673" fill="white" stroke="#A3AAB2" stroke-width="2.23564"/>
<path d="M9.68086 18.9243C9.68086 17.2054 9.96901 15.864 10.5453 14.9002C11.1315 13.9265 12.1351 13.4396 13.556 13.4396C14.9768 13.4396 15.9754 13.9265 16.5517 14.9002C17.138 15.864 17.4311 17.2054 17.4311 18.9243C17.4311 20.6632 17.138 22.0244 16.5517 23.0081C15.9754 23.9819 14.9768 24.4687 13.556 24.4687C12.1351 24.4687 11.1315 23.9819 10.5453 23.0081C9.96901 22.0244 9.68086 20.6632 9.68086 18.9243ZM15.7618 18.9243C15.7618 18.1195 15.7071 17.4389 15.5978 16.8825C15.4985 16.326 15.2898 15.8739 14.9719 15.5262C14.6539 15.1685 14.1819 14.9896 13.556 14.9896C12.93 14.9896 12.458 15.1685 12.1401 15.5262C11.8221 15.8739 11.6085 16.326 11.4992 16.8825C11.3998 17.4389 11.3501 18.1195 11.3501 18.9243C11.3501 19.759 11.3998 20.4595 11.4992 21.0258C11.5985 21.5922 11.8072 22.0493 12.1252 22.397C12.4531 22.7448 12.93 22.9187 13.556 22.9187C14.1819 22.9187 14.6539 22.7448 14.9719 22.397C15.2998 22.0493 15.5134 21.5922 15.6128 21.0258C15.7121 20.4595 15.7618 19.759 15.7618 18.9243ZM20.1679 22.1884C21.1217 21.3637 21.8719 20.688 22.4184 20.1614C22.9748 19.6248 23.4369 19.0684 23.8045 18.4921C24.1721 17.9158 24.356 17.3395 24.356 16.7632C24.356 16.1671 24.2119 15.7001 23.9237 15.3622C23.6455 15.0244 23.2034 14.8555 22.5973 14.8555C22.011 14.8555 21.554 15.0443 21.2261 15.4218C20.9081 15.7895 20.7392 16.2863 20.7193 16.9123H19.0799C19.1097 15.7796 19.4475 14.9151 20.0933 14.3189C20.7491 13.7128 21.5788 13.4098 22.5823 13.4098C23.6654 13.4098 24.51 13.7079 25.1161 14.304C25.7321 14.9002 26.0401 15.6951 26.0401 16.6887C26.0401 17.4041 25.8563 18.0947 25.4887 18.7604C25.131 19.4162 24.6988 20.0074 24.192 20.534C23.6952 21.0507 23.0593 21.6518 22.2843 22.3374L21.6136 22.9336H26.3382V24.3495H19.0948V23.1124L20.1679 22.1884Z" fill="#898886"/>
</g>
<defs>
<clipPath id="clip0_97_1150">
<rect width="35.7702" height="35.7702" fill="white" transform="translate(0.114899 0.114868)"/>
</clipPath>
</defs>
</svg>
