<svg width="87" height="86" viewBox="0 0 87 86" fill="none" xmlns="http://www.w3.org/2000/svg">
<rect width="87" height="86" fill="#696969"/>
<path d="M-2231 -514C-2231 -515.105 -2230.1 -516 -2229 -516H1418C1419.1 -516 1420 -515.105 1420 -514V940C1420 941.105 1419.1 942 1418 942H-2229C-2230.1 942 -2231 941.105 -2231 940V-514Z" fill="#444444"/>
<path d="M-2229 -515H1418V-517H-2229V-515ZM1419 -514V940H1421V-514H1419ZM1418 941H-2229V943H1418V941ZM-2230 940V-514H-2232V940H-2230ZM-2229 941C-2229.55 941 -2230 940.552 -2230 940H-2232C-2232 941.657 -2230.66 943 -2229 943V941ZM1419 940C1419 940.552 1418.55 941 1418 941V943C1419.66 943 1421 941.657 1421 940H1419ZM1418 -515C1418.55 -515 1419 -514.552 1419 -514H1421C1421 -515.657 1419.66 -517 1418 -517V-515ZM-2229 -517C-2230.66 -517 -2232 -515.657 -2232 -514H-2230C-2230 -514.552 -2229.55 -515 -2229 -515V-517Z" fill="white" fill-opacity="0.1"/>
<g clip-path="url(#clip0_2_659)">
<rect x="-144" y="-229" width="375" height="983" rx="40" fill="url(#paint0_linear_2_659)"/>
<path d="M60.0437 4.19973C81.496 13.3366 91.4795 38.1339 82.3426 59.5862C73.2058 81.0384 48.4084 91.0219 26.9562 81.885C5.50403 72.7482 -4.47953 47.9508 4.65733 26.4986C13.7942 5.04643 38.5915 -4.93714 60.0437 4.19973Z" fill="#C36565" stroke="white"/>
<path d="M22.1412 43.4028L38.3496 61.8203L64.8603 24.2635" stroke="white" stroke-width="6" stroke-linecap="round" stroke-linejoin="round"/>
</g>
<defs>
<linearGradient id="paint0_linear_2_659" x1="43.5" y1="-229" x2="43.5" y2="754" gradientUnits="userSpaceOnUse">
<stop stop-color="#FFF8E7"/>
<stop offset="1" stop-color="#FFEAEE"/>
</linearGradient>
<clipPath id="clip0_2_659">
<rect x="-144" y="-229" width="375" height="983" rx="40" fill="white"/>
</clipPath>
</defs>
</svg>
