<svg width="344" height="297" viewBox="0 0 344 297" fill="none" xmlns="http://www.w3.org/2000/svg">
<path d="M344 236.091H0V236.263H344V236.091Z" fill="#EBEBEB"/>
<path d="M309.531 247.161H299.28V247.333H309.531V247.161Z" fill="#EBEBEB"/>
<path d="M227.879 249.032H221.9V249.204H227.879V249.032Z" fill="#EBEBEB"/>
<path d="M296.377 240.776H272.854V240.948H296.377V240.776Z" fill="#EBEBEB"/>
<path d="M75.4257 244.327H45.7109V244.499H75.4257V244.327Z" fill="#EBEBEB"/>
<path d="M92.2679 244.327H81.5488V244.499H92.2679V244.327Z" fill="#EBEBEB"/>
<path d="M175.275 242.015H110.823V242.187H175.275V242.015Z" fill="#EBEBEB"/>
<path d="M163.056 205.406H30.2102C29.1695 205.405 28.172 204.99 27.4368 204.253C26.7015 203.517 26.2886 202.519 26.2886 201.478V14.7341C26.2976 13.6993 26.7146 12.71 27.4488 11.9809C28.1831 11.2517 29.1754 10.8418 30.2102 10.84H163.056C164.098 10.84 165.097 11.2539 165.834 11.9906C166.571 12.7274 166.985 13.7266 166.985 14.7685V201.478C166.985 202.52 166.571 203.519 165.834 204.256C165.097 204.993 164.098 205.406 163.056 205.406ZM30.2102 10.9776C29.2151 10.9794 28.2614 11.376 27.5584 12.0803C26.8554 12.7846 26.4606 13.739 26.4606 14.7341V201.478C26.4606 202.473 26.8554 203.427 27.5584 204.132C28.2614 204.836 29.2151 205.233 30.2102 205.234H163.056C164.052 205.233 165.006 204.836 165.71 204.132C166.414 203.428 166.811 202.474 166.813 201.478V14.7341C166.811 13.7384 166.414 12.7839 165.71 12.0799C165.006 11.3758 164.052 10.9794 163.056 10.9776H30.2102Z" fill="#EBEBEB"/>
<path d="M311.877 205.406H179.025C177.983 205.405 176.985 204.99 176.249 204.254C175.512 203.517 175.098 202.519 175.096 201.478V14.7341C175.107 13.6987 175.526 12.7093 176.261 11.9804C176.996 11.2515 177.989 10.8417 179.025 10.84H311.877C312.911 10.8436 313.902 11.2543 314.634 11.9833C315.367 12.7122 315.783 13.7005 315.792 14.7341V201.478C315.792 202.517 315.38 203.515 314.646 204.251C313.913 204.987 312.917 205.403 311.877 205.406ZM179.025 10.9776C178.029 10.9794 177.075 11.3758 176.37 12.0799C175.666 12.7839 175.27 13.7384 175.268 14.7341V201.478C175.27 202.474 175.666 203.428 176.37 204.132C177.075 204.836 178.029 205.233 179.025 205.234H311.877C312.873 205.233 313.828 204.836 314.532 204.132C315.236 203.428 315.632 202.474 315.634 201.478V14.7341C315.632 13.7384 315.236 12.7839 314.532 12.0799C313.828 11.3758 312.873 10.9794 311.877 10.9776H179.025Z" fill="#EBEBEB"/>
<path d="M152.392 231.069H157.827V193.848H152.392V231.069Z" fill="#F0F0F0"/>
<path d="M42.4564 236.091H154.243V231.069H42.4564V236.091Z" fill="#F0F0F0"/>
<path d="M152.392 193.848H38.8652V231.069H152.392V193.848Z" fill="#F5F5F5"/>
<path d="M145.044 200.329H46.2061V221.588H145.044V200.329Z" fill="#F0F0F0"/>
<path d="M71.5864 203.17H119.678C120.578 203.17 121.308 202.44 121.308 201.54V201.237C121.308 200.337 120.578 199.607 119.678 199.607H71.5864C70.6858 199.607 69.9558 200.337 69.9558 201.237V201.54C69.9558 202.44 70.6858 203.17 71.5864 203.17Z" fill="#F5F5F5"/>
<path d="M36.3746 193.848H152.392V190.525H36.3746V193.848Z" fill="#F0F0F0"/>
<path d="M160.435 190.525H152.392V193.848H160.435V190.525Z" fill="#E6E6E6"/>
<path d="M148.243 141.429L293.707 141.429V29.8701L148.243 29.8701V141.429Z" fill="#E6E6E6"/>
<path d="M134.628 25.5288H301.936C302.269 25.5288 302.59 25.6614 302.826 25.8976C303.062 26.1337 303.195 26.4539 303.195 26.7878C303.193 27.1206 303.059 27.439 302.823 27.6737C302.588 27.9083 302.268 28.04 301.936 28.04H134.628C134.462 28.0409 134.297 28.009 134.144 27.9461C133.99 27.8833 133.851 27.7907 133.733 27.6737C133.615 27.5567 133.522 27.4176 133.458 27.2644C133.395 27.1112 133.362 26.9469 133.362 26.781C133.363 26.6156 133.396 26.4521 133.46 26.2997C133.524 26.1473 133.618 26.009 133.735 25.8927C133.853 25.7764 133.992 25.6844 134.145 25.622C134.299 25.5596 134.462 25.5279 134.628 25.5288Z" fill="#E6E6E6"/>
<path d="M142.849 141.429L291.189 141.429V29.8701L142.849 29.8701V141.429Z" fill="#F0F0F0"/>
<path d="M148.244 141.429H293.707V145H144.528L148.244 141.429Z" fill="#E6E6E6"/>
<path d="M133.864 141.429H282.204L278.489 145H130.156L133.864 141.429Z" fill="#F0F0F0"/>
<path d="M283.635 133.882V37.4174L150.397 37.4174V133.882H283.635Z" fill="#FAFAFA"/>
<path d="M239.176 133.875L194.876 37.4174H173.954L218.261 133.875H239.176Z" fill="white"/>
<path d="M213.769 133.875L169.461 37.4174H161.309L205.616 133.875H213.769Z" fill="white"/>
<path d="M151.36 133.882V37.4174H150.404V133.882H151.36Z" fill="#E6E6E6"/>
<g opacity="0.4">
<path opacity="0.4" d="M283.552 115.327H296.542V23.2653H283.552V115.327Z" fill="#F0F0F0"/>
<path opacity="0.4" d="M278.488 115.327H288.609V23.2653H278.488V115.327Z" fill="#E6E6E6"/>
<path opacity="0.4" d="M270.563 115.327H283.552V23.2653H270.563V115.327Z" fill="#F0F0F0"/>
<path opacity="0.4" d="M265.499 115.327H275.62V23.2653H265.499V115.327Z" fill="#E6E6E6"/>
<path opacity="0.4" d="M257.566 115.327H270.556V23.2653H257.566V115.327Z" fill="#F0F0F0"/>
</g>
<g opacity="0.4">
<path opacity="0.4" d="M155.241 115.327H162.726V23.2653H155.241V115.327Z" fill="#F0F0F0"/>
<path opacity="0.4" d="M152.317 115.327H158.151V23.2653H152.317V115.327Z" fill="#E6E6E6"/>
<path opacity="0.4" d="M147.748 115.327H155.233V23.2653H147.748V115.327Z" fill="#F0F0F0"/>
<path opacity="0.4" d="M144.831 115.327H150.665V23.2653H144.831V115.327Z" fill="#E6E6E6"/>
<path opacity="0.4" d="M140.263 115.327H147.748V23.2653H140.263V115.327Z" fill="#F0F0F0"/>
</g>
<path d="M108.154 23.3272H48.3872V176.036H108.154V23.3272Z" fill="#F5F5F5"/>
<path d="M108.16 176.029H109.798L109.798 23.3203H108.16L108.16 176.029Z" fill="#E0E0E0"/>
<path d="M102.615 170.497L102.615 28.8587L53.9186 28.8587L53.9186 170.497H102.615Z" fill="white"/>
<path d="M71.0635 170.497L87.2246 28.8587H96.547L80.3928 170.497H71.0635Z" fill="#FAFAFA"/>
<path d="M62.9863 170.497L79.1406 28.8587H83.8052L67.651 170.497H62.9863Z" fill="#FAFAFA"/>
<path d="M172 267.161C245.673 267.161 305.396 263.674 305.396 259.373C305.396 255.072 245.673 251.585 172 251.585C98.3271 251.585 38.6035 255.072 38.6035 259.373C38.6035 263.674 98.3271 267.161 172 267.161Z" fill="#F5F5F5"/>
<path d="M273.859 259.373H193.5C192.381 259.385 191.271 259.164 190.242 258.724C189.212 258.283 188.286 257.633 187.522 256.815C186.757 255.997 186.172 255.029 185.802 253.972C185.433 252.915 185.287 251.793 185.375 250.677L196.589 80.6926C196.777 78.3506 197.83 76.1625 199.544 74.5548C201.257 72.9471 203.508 72.035 205.857 71.9963H286.208C287.327 71.9852 288.436 72.2071 289.465 72.648C290.493 73.0888 291.419 73.7389 292.182 74.5568C292.946 75.3748 293.531 76.3428 293.9 77.3991C294.269 78.4555 294.415 79.5771 294.327 80.6926L283.126 250.677C282.938 253.019 281.885 255.207 280.172 256.815C278.458 258.422 276.208 259.334 273.859 259.373Z" fill="#24221E"/>
<path d="M290.777 117.707H281.048C280.778 117.71 280.51 117.656 280.262 117.55C280.014 117.444 279.79 117.287 279.606 117.089C279.422 116.892 279.28 116.659 279.191 116.404C279.102 116.149 279.066 115.878 279.087 115.609L280.058 100.885C280.112 100.326 280.37 99.8055 280.784 99.4246C281.198 99.0438 281.738 98.829 282.3 98.8214H292.022C292.289 98.8191 292.553 98.8716 292.799 98.9759C293.045 99.0801 293.267 99.2338 293.451 99.4274C293.635 99.621 293.777 99.8503 293.868 100.101C293.96 100.352 293.999 100.619 293.983 100.885L293.013 115.609C292.968 116.174 292.714 116.702 292.301 117.091C291.887 117.479 291.344 117.699 290.777 117.707Z" fill="#24221E"/>
<path d="M226.889 69.5883H223.332V70.2763H226.889V69.5883Z" fill="#871E35"/>
<path d="M218.95 69.5883H206.015V70.2763H218.95V69.5883Z" fill="#871E35"/>
<path d="M272.634 259.373H192.276C191.156 259.384 190.047 259.162 189.018 258.721C187.989 258.281 187.064 257.631 186.299 256.813C185.535 255.995 184.95 255.027 184.58 253.971C184.21 252.914 184.063 251.793 184.15 250.677L195.392 80.6926C195.58 78.3506 196.633 76.1625 198.347 74.5548C200.06 72.9471 202.31 72.035 204.66 71.9963H285.018C286.133 71.9919 287.237 72.2188 288.259 72.6626C289.282 73.1064 290.202 73.7575 290.96 74.5747C291.719 75.3919 292.299 76.3575 292.666 77.4106C293.032 78.4636 293.176 79.5812 293.088 80.6926L281.901 250.677C281.714 253.019 280.66 255.207 278.947 256.815C277.234 258.422 274.983 259.334 272.634 259.373Z" fill="#E3AC1E"/>
<path d="M276.28 239.572H191.264C190.628 239.579 189.998 239.453 189.413 239.203C188.829 238.953 188.302 238.584 187.868 238.119C187.434 237.655 187.101 237.105 186.891 236.504C186.681 235.904 186.598 235.267 186.648 234.633L196.411 86.6438C196.516 85.3169 197.111 84.0765 198.08 83.1636C199.049 82.2508 200.322 81.7305 201.653 81.704H286.69C287.326 81.6973 287.956 81.823 288.541 82.0732C289.126 82.3234 289.652 82.6926 290.086 83.1572C290.52 83.6219 290.853 84.1718 291.063 84.7721C291.273 85.3724 291.356 86.0098 291.306 86.6438L281.544 234.633C281.438 235.963 280.84 237.206 279.867 238.12C278.893 239.033 277.615 239.551 276.28 239.572Z" fill="white"/>
<path d="M260.422 81.704H243.538L202.637 239.572H219.52L260.422 81.704Z" fill="#FAFAFA"/>
<path d="M275.296 81.704H266.855L225.953 239.572H234.395L275.296 81.704Z" fill="#FAFAFA"/>
<path d="M264.082 190.656L245.726 121.23C245.235 119.384 244.033 117.808 242.382 116.847C240.731 115.887 238.767 115.619 236.92 116.104L193.493 127.58L187.7 218.3L258.956 199.469C260.802 198.975 262.376 197.771 263.337 196.119C264.297 194.468 264.565 192.504 264.082 190.656Z" fill="#F0F0F0"/>
<path opacity="0.2" d="M236.845 251.326C239.052 249.192 239.222 245.787 237.224 243.723C235.227 241.658 231.819 241.715 229.613 243.849C227.406 245.984 227.236 249.388 229.234 251.453C231.231 253.518 234.639 253.461 236.845 251.326Z" fill="white"/>
<path opacity="0.2" d="M246.738 76.5715C246.69 77.171 246.42 77.731 245.981 78.142C245.542 78.553 244.965 78.7854 244.364 78.7938C244.079 78.7946 243.797 78.7364 243.536 78.623C243.275 78.5095 243.04 78.3431 242.846 78.1344C242.652 77.9256 242.503 77.679 242.409 77.4101C242.315 77.1411 242.278 76.8556 242.3 76.5715C242.346 75.9715 242.616 75.4106 243.055 74.9993C243.494 74.588 244.072 74.3561 244.674 74.3493C244.959 74.3484 245.24 74.4066 245.502 74.5201C245.763 74.6336 245.998 74.7999 246.192 75.0086C246.386 75.2174 246.534 75.464 246.628 75.733C246.722 76.002 246.759 76.2875 246.738 76.5715Z" fill="white"/>
<path opacity="0.2" d="M245.733 76.5715C245.709 76.9014 245.562 77.2102 245.321 77.4369C245.081 77.6637 244.764 77.7919 244.433 77.7962C244.275 77.7987 244.118 77.768 243.973 77.7063C243.828 77.6445 243.697 77.5529 243.59 77.4375C243.482 77.3221 243.4 77.1854 243.348 77.0362C243.297 76.8871 243.277 76.7287 243.291 76.5715C243.315 76.2417 243.462 75.9329 243.703 75.7061C243.943 75.4794 244.26 75.3512 244.591 75.3469C244.749 75.3444 244.905 75.375 245.051 75.4368C245.196 75.4986 245.327 75.5901 245.434 75.7055C245.542 75.8209 245.624 75.9576 245.676 76.1068C245.727 76.256 245.747 76.4143 245.733 76.5715Z" fill="white"/>
<path d="M116.492 67.9853C119.059 61.6763 118.137 53.9914 110.858 52.2714C109.254 51.8581 107.575 51.8265 105.957 52.1789C104.338 52.5314 102.825 53.2581 101.538 54.3009C100.251 55.3437 99.2264 56.6735 98.5461 58.1837C97.8658 59.6939 97.5488 61.3425 97.6205 62.9973C97.9095 69.8773 102.436 75.6083 94.5039 80.5963C86.5712 85.5843 87.4175 100.617 102.76 97.7138C118.102 94.8104 109.812 86.919 109.812 86.919C109.812 86.919 106.048 89.9875 104.838 86.864C103.303 82.8186 113.52 75.3675 116.492 67.9853Z" fill="#24221E"/>
<path d="M89.4948 88.6803L89.1577 88.6046C90.1828 84.0157 91.7928 82.8323 93.4921 81.5802C95.1915 80.328 96.8014 79.1378 98.1017 74.6245C98.714 72.4986 98.3287 70.1456 97.9503 67.8752C97.4687 64.9787 96.9734 61.979 98.4663 59.2958L98.7622 59.4678C97.3312 62.041 97.8196 64.9718 98.2875 67.8202C98.6728 70.1318 99.0718 72.5192 98.432 74.7002C97.1041 79.3235 95.3704 80.5963 93.6985 81.8347C92.0267 83.0731 90.4924 84.2221 89.4948 88.6803Z" fill="#24221E"/>
<path d="M136.031 102.64C136.079 102.874 136.162 103.225 136.238 103.541L136.478 104.511C136.643 105.165 136.829 105.818 137.022 106.472C137.414 107.772 137.834 109.086 138.288 110.38C139.196 112.983 140.234 115.538 141.398 118.037L142.264 119.847C142.411 120.17 142.619 120.462 142.877 120.707C143.65 121.329 144.573 121.737 145.553 121.89C148.126 122.306 150.748 122.306 153.321 121.89L154.249 124.814C153.538 125.128 152.81 125.403 152.068 125.64C151.332 125.885 150.583 126.091 149.826 126.259C148.247 126.622 146.628 126.773 145.01 126.706C143.106 126.652 141.254 126.069 139.664 125.02C138.769 124.4 138.014 123.598 137.448 122.668L137.338 122.496L137.27 122.379L137.132 122.131L136.85 121.649L136.293 120.672C134.853 118.048 133.589 115.332 132.509 112.54C131.986 111.164 131.47 109.726 131.05 108.275C130.844 107.587 130.637 106.823 130.451 106.08C130.266 105.337 130.101 104.635 129.949 103.754L136.031 102.64Z" fill="#FFBE9D"/>
<path d="M130.72 93.0216C137.662 96.1176 137.6 106.52 137.6 106.52L130.287 110.916C130.287 110.916 124.783 102.771 125.195 99.0691C125.601 95.2094 126.785 91.281 130.72 93.0216Z" fill="#871E35"/>
<path opacity="0.2" d="M131.814 101.897C129.915 99.9773 128.243 102.193 126.716 104.649C127.763 106.821 128.956 108.919 130.287 110.93L133.286 109.128C133.878 106.837 133.706 103.823 131.814 101.897Z" fill="black"/>
<path d="M152.599 122.152L157.483 119.716L157.538 126.108C157.538 126.108 153.892 126.74 151.463 124.181L152.599 122.152Z" fill="#FFBE9D"/>
<path d="M162.733 120.851L161.893 125.598L157.538 126.108L157.483 119.716L162.733 120.851Z" fill="#FFBE9D"/>
<path d="M107.885 254.296L113.926 254.874L116.74 240.818L110.699 240.24L107.885 254.296Z" fill="#FFBE9D"/>
<path d="M68.2773 237.818L73.1897 241.396L81.3838 229.769L76.4645 226.191L68.2773 237.818Z" fill="#FFBE9D"/>
<path d="M74.992 239.16L70.9466 233.621C70.8793 233.523 70.7781 233.453 70.6625 233.426C70.547 233.398 70.4251 233.413 70.3205 233.47L65.4701 236.043C65.3502 236.113 65.2464 236.207 65.1654 236.319C65.0844 236.432 65.0281 236.56 65.0002 236.696C64.9722 236.831 64.9733 236.972 65.0033 237.107C65.0333 237.242 65.0916 237.37 65.1742 237.481C66.619 239.387 67.4102 240.233 69.1922 242.675C70.293 244.175 72.4946 247.65 74.0082 249.72C75.5218 251.791 77.6477 250.408 77.2074 249.411C75.2122 244.932 75.1434 242.311 75.2947 240.212C75.3236 239.836 75.2161 239.463 74.992 239.16Z" fill="#24221E"/>
<path d="M114.724 253.05H107.472C107.342 253.051 107.215 253.094 107.112 253.173C107.009 253.253 106.935 253.365 106.901 253.491L105.326 259.208C105.287 259.343 105.281 259.486 105.307 259.624C105.333 259.762 105.391 259.892 105.477 260.004C105.563 260.116 105.673 260.206 105.8 260.267C105.926 260.328 106.066 260.359 106.206 260.357C108.766 260.357 109.977 260.357 113.162 260.357H122.911C125.56 260.357 126.11 257.681 125.016 257.433C120.104 256.346 117.269 254.846 115.749 253.415C115.466 253.168 115.099 253.038 114.724 253.05Z" fill="#24221E"/>
<path opacity="0.2" d="M116.74 240.825L115.288 248.069H109.13L110.699 240.247L116.74 240.825Z" fill="black"/>
<path opacity="0.2" d="M76.4646 226.191L81.3838 229.775L77.1594 235.768L72.2402 232.183L76.4646 226.191Z" fill="black"/>
<path d="M133.582 98.505C133.155 103.149 131.614 112.265 127.108 130.077L102.381 127.938C103.571 118.656 104.129 112.643 101.803 95.0718C101.728 94.491 101.772 93.9009 101.934 93.338C102.097 92.7752 102.373 92.2517 102.746 91.8001C103.118 91.3484 103.58 90.9783 104.102 90.7126C104.624 90.447 105.195 90.2915 105.78 90.2558C107.562 90.1595 109.681 90.0976 111.807 90.1802C115.568 90.2365 119.32 90.5606 123.035 91.1502C125.216 91.5424 127.541 92.1066 129.433 92.6019C130.711 92.9366 131.829 93.7132 132.588 94.7939C133.348 95.8746 133.7 97.1894 133.582 98.505Z" fill="#871E35"/>
<path opacity="0.2" d="M102.437 100.218C102.753 102.97 102.987 105.426 103.125 107.628C105.402 107.428 107.081 104.931 107.253 99.709C106.399 97.184 104.37 98.099 102.437 100.218Z" fill="black"/>
<path d="M127.108 130.077C127.108 130.077 135.474 167.092 129.86 193.188C126.124 210.663 117.806 245.964 117.806 245.964L107.259 245.696C107.259 245.696 112.295 208.647 114.408 194.096C118.02 169.176 108.972 128.536 108.972 128.536L127.108 130.077Z" fill="#24221E"/>
<path opacity="0.2" d="M117.462 137.556L112.185 145.874C113.774 155.736 114.783 165.683 115.205 175.664C122.622 162.386 119.106 144.58 117.462 137.556Z" fill="black"/>
<path d="M119.32 246.514L106.289 246.184L107.046 242.18L120.338 242.806L119.32 246.514Z" fill="#871E35"/>
<path d="M121.7 129.685C121.7 129.685 116.795 168.936 106.152 190.367C97.5586 207.677 79.5811 235.19 79.5811 235.19L73.0107 229.927C73.0107 229.927 84.2527 199.496 90.6373 188C106.303 159.792 93.4994 138.292 102.381 127.938L121.7 129.685Z" fill="#24221E"/>
<path d="M224.596 94.7553L107.652 143.89C103.981 145.432 102.255 149.659 103.797 153.33L131.612 219.531C133.154 223.202 137.381 224.928 141.052 223.385L257.996 174.251C261.667 172.708 263.393 168.482 261.85 164.81L234.036 98.6097C232.493 94.9385 228.267 93.2128 224.596 94.7553Z" fill="#871E35"/>
<path opacity="0.1" d="M224.596 94.7553L107.652 143.89C103.981 145.432 102.255 149.659 103.797 153.33L131.612 219.531C133.154 223.202 137.381 224.928 141.052 223.385L257.996 174.251C261.667 172.708 263.393 168.482 261.85 164.81L234.036 98.6097C232.493 94.9385 228.267 93.2128 224.596 94.7553Z" fill="black"/>
<path opacity="0.2" d="M139.91 140.943L117.012 150.564C115.246 151.305 114.416 153.338 115.158 155.103L119.984 166.59C120.726 168.356 122.759 169.186 124.524 168.444L147.422 158.823C149.188 158.082 150.018 156.049 149.276 154.283L144.45 142.797C143.708 141.031 141.675 140.201 139.91 140.943Z" fill="white"/>
<path opacity="0.4" d="M155.977 186.35L133.542 195.776C132.88 196.054 132.569 196.816 132.847 197.479L134.55 201.532C134.828 202.194 135.59 202.505 136.252 202.227L158.687 192.801C159.349 192.522 159.66 191.76 159.382 191.098L157.679 187.045C157.401 186.383 156.639 186.072 155.977 186.35Z" fill="white"/>
<path opacity="0.4" d="M185.166 174.089L162.731 183.516C162.069 183.794 161.758 184.556 162.036 185.218L163.739 189.271C164.017 189.933 164.779 190.244 165.441 189.966L187.876 180.54C188.538 180.262 188.849 179.5 188.571 178.838L186.868 174.785C186.59 174.123 185.828 173.811 185.166 174.089Z" fill="white"/>
<path opacity="0.4" d="M214.347 161.829L191.913 171.255C191.251 171.533 190.939 172.296 191.218 172.958L192.92 177.011C193.199 177.673 193.961 177.984 194.623 177.706L217.058 168.28C217.72 168.002 218.031 167.239 217.753 166.577L216.05 162.524C215.772 161.862 215.01 161.551 214.347 161.829Z" fill="white"/>
<path opacity="0.4" d="M243.536 149.569L221.102 158.995C220.44 159.273 220.128 160.035 220.407 160.697L222.109 164.75C222.388 165.412 223.15 165.724 223.812 165.445L246.247 156.019C246.909 155.741 247.22 154.979 246.942 154.317L245.239 150.264C244.961 149.602 244.198 149.29 243.536 149.569Z" fill="white"/>
<path d="M80.2688 235.919L71.8408 229.541L73.9117 225.84L82.8695 232.789L80.2688 235.919Z" fill="#871E35"/>
<path d="M102.134 126.458L100.827 128.577C100.723 128.736 100.916 128.935 101.198 128.956L127.136 131.199C127.356 131.199 127.548 131.123 127.576 130.985L127.989 128.791C128.023 128.639 127.837 128.495 127.597 128.474L102.553 126.307C102.476 126.295 102.397 126.302 102.324 126.329C102.251 126.355 102.185 126.4 102.134 126.458Z" fill="#871E35"/>
<path opacity="0.5" d="M102.134 126.458L100.827 128.577C100.723 128.736 100.916 128.935 101.198 128.956L127.136 131.199C127.356 131.199 127.548 131.123 127.576 130.985L127.989 128.791C128.023 128.639 127.837 128.495 127.597 128.474L102.553 126.307C102.476 126.295 102.397 126.302 102.324 126.329C102.251 126.355 102.185 126.4 102.134 126.458Z" fill="black"/>
<path d="M105.264 129.548L104.576 129.492C104.445 129.492 104.349 129.403 104.363 129.32L104.927 126.472C104.927 126.383 105.064 126.328 105.202 126.341L105.89 126.396C106.028 126.396 106.124 126.486 106.103 126.568L105.539 129.417C105.512 129.499 105.388 129.561 105.264 129.548Z" fill="#871E35"/>
<path d="M125.216 131.274L124.528 131.219C124.397 131.219 124.301 131.13 124.315 131.047L124.879 128.199C124.904 128.15 124.944 128.11 124.994 128.086C125.044 128.063 125.1 128.056 125.154 128.068L125.842 128.123C125.98 128.123 126.076 128.213 126.055 128.295L125.491 131.144C125.484 131.24 125.361 131.288 125.216 131.274Z" fill="#871E35"/>
<path d="M115.24 130.414L114.552 130.352C114.414 130.352 114.318 130.263 114.339 130.18L114.903 127.332C114.903 127.25 115.04 127.188 115.171 127.201L115.859 127.263C115.99 127.263 116.086 127.353 116.072 127.435L115.508 130.284C115.495 130.366 115.378 130.421 115.24 130.414Z" fill="#871E35"/>
<path d="M76.5329 242.221C76.4555 242.235 76.3764 242.235 76.299 242.221C75.549 242.07 74.923 240.797 74.5927 240.054C74.5797 240.035 74.5728 240.012 74.5728 239.989C74.5728 239.965 74.5797 239.943 74.5927 239.923C74.6106 239.91 74.6323 239.903 74.6546 239.903C74.677 239.903 74.6987 239.91 74.7166 239.923C74.9505 240.006 77.0007 240.797 77.159 241.547C77.178 241.628 77.1739 241.713 77.1471 241.792C77.1204 241.871 77.072 241.941 77.0076 241.994C76.8775 242.118 76.7112 242.198 76.5329 242.221ZM74.9298 240.212C75.3977 241.237 75.9206 241.891 76.3471 241.974C76.4434 241.988 76.5419 241.978 76.6333 241.944C76.7247 241.911 76.8061 241.855 76.87 241.781C76.9044 241.755 76.9305 241.72 76.9452 241.68C76.9599 241.639 76.9624 241.596 76.9526 241.554C76.8562 241.093 75.6385 240.501 74.9298 240.212Z" fill="#871E35"/>
<path d="M76.5949 240.309C75.9409 240.39 75.277 240.319 74.6547 240.102C74.6357 240.094 74.6193 240.08 74.6072 240.063C74.5951 240.047 74.5878 240.027 74.5859 240.006C74.5832 239.985 74.5863 239.964 74.5948 239.944C74.6032 239.925 74.6168 239.908 74.6341 239.896C74.696 239.855 76.1133 238.823 76.9664 239.015C77.0718 239.035 77.1714 239.078 77.2582 239.141C77.345 239.204 77.4169 239.286 77.4686 239.38C77.5367 239.466 77.5737 239.573 77.5737 239.683C77.5737 239.792 77.5367 239.899 77.4686 239.985C77.2238 240.191 76.9149 240.306 76.5949 240.309ZM74.9918 239.944C75.6798 240.144 76.9664 240.157 77.2829 239.806C77.3379 239.751 77.3861 239.662 77.2829 239.483C77.2489 239.419 77.201 239.364 77.1426 239.321C77.0842 239.278 77.0169 239.249 76.9457 239.235C76.3678 239.118 75.3771 239.689 74.9918 239.944Z" fill="#871E35"/>
<path d="M117.944 254.22C117.277 254.203 116.613 254.12 115.963 253.972C115.94 253.963 115.922 253.947 115.908 253.927C115.895 253.907 115.888 253.883 115.888 253.859C115.888 253.835 115.895 253.811 115.908 253.791C115.922 253.771 115.94 253.755 115.963 253.745C116.265 253.601 118.893 252.369 119.554 252.837C119.615 252.876 119.664 252.932 119.694 252.998C119.725 253.064 119.736 253.137 119.726 253.209C119.724 253.343 119.691 253.476 119.629 253.595C119.567 253.715 119.477 253.818 119.368 253.897C118.94 254.154 118.441 254.267 117.944 254.22ZM116.375 253.807C117.16 253.952 118.604 254.144 119.196 253.697C119.273 253.637 119.336 253.561 119.381 253.474C119.426 253.388 119.452 253.292 119.458 253.195C119.458 253.099 119.458 253.057 119.396 253.037C119.024 252.782 117.469 253.326 116.375 253.807Z" fill="#871E35"/>
<path d="M115.99 253.972C115.965 253.982 115.938 253.982 115.914 253.972C115.896 253.959 115.883 253.941 115.875 253.92C115.868 253.899 115.867 253.877 115.873 253.855C115.873 253.738 116.492 251.145 117.937 251.31C118.295 251.358 118.391 251.53 118.412 251.674C118.501 252.362 116.843 253.67 116.045 253.993L115.99 253.972ZM117.792 251.516C116.877 251.516 116.348 253.03 116.169 253.635C117.029 253.181 118.233 252.101 118.157 251.681C118.157 251.647 118.157 251.551 117.889 251.523L117.792 251.516Z" fill="#871E35"/>
<path d="M105.119 100.342L104.755 100.858L104.356 101.443C104.087 101.842 103.819 102.248 103.564 102.667C103.042 103.493 102.567 104.353 102.085 105.213C101.134 106.943 100.298 108.733 99.5809 110.572C98.8583 112.401 98.2539 114.274 97.7715 116.18L97.4481 117.556C97.4481 117.514 97.4069 117.659 97.4825 117.92C97.7193 118.656 98.0649 119.351 98.5076 119.984C99.619 121.582 100.867 123.081 102.237 124.463C103.613 125.922 105.14 127.332 106.66 128.736C108.181 130.139 109.777 131.488 111.373 132.816C112.969 134.143 114.6 135.485 116.189 136.778L114.469 139.317C110.784 137.131 107.226 134.738 103.812 132.148C102.092 130.855 100.407 129.492 98.776 128.02C97.0662 126.522 95.5062 124.86 94.1182 123.06C93.2863 122.002 92.6353 120.814 92.1918 119.544C91.8907 118.66 91.7897 117.72 91.896 116.792V116.599V116.496L91.9304 116.29L91.9992 115.87L92.1437 115.038C92.5485 112.822 93.1188 110.639 93.8499 108.508C94.606 106.388 95.5 104.32 96.5262 102.316C97.0422 101.312 97.6064 100.342 98.2118 99.3856C98.5077 98.904 98.8173 98.4293 99.1406 97.9546L99.6497 97.2666C99.8286 97.0258 99.98 96.8125 100.221 96.5166L105.119 100.342Z" fill="#FFBE9D"/>
<path d="M104.507 90.648C99.7875 91.8864 95.2329 103.328 95.2329 103.328L101.342 108.914C101.342 108.914 110.94 100.163 110.617 96.2139C110.348 92.8565 108.298 89.6435 104.507 90.648Z" fill="#871E35"/>
<path opacity="0.2" d="M111.807 89.96C110.942 90.1365 110.061 90.2173 109.179 90.2008C108.993 93.5995 111.174 96.8813 116.534 101.284C117.82 97.2734 120.662 96.4066 120.662 96.4066L111.807 89.96Z" fill="black"/>
<path opacity="0.2" d="M123.035 91.0402C123.035 91.0402 123.661 91.1296 125.154 91.4736C126.151 93.0078 127.445 97.7344 124.507 101.106C123.365 96.9776 120.641 96.4547 120.641 96.4547L123.035 91.0402Z" fill="black"/>
<path d="M111.807 89.96C111.807 89.96 110.431 89.96 108.752 89.96C107.755 91.4942 111.188 95.7461 116.54 100.149C117.827 96.1382 120.668 96.379 120.668 96.379L111.807 89.96Z" fill="white"/>
<path d="M123.035 91.0402C123.035 91.0402 123.661 91.1296 125.154 91.4736C126.152 93.0078 128.305 97.1634 125.367 100.507C124.225 96.379 120.641 96.4341 120.641 96.4341L123.035 91.0402Z" fill="white"/>
<path d="M114.015 77.6104C114.414 81.2843 114.545 87.9304 111.807 90.1595C111.807 90.1595 113.231 94.2875 120.641 96.4341C125.099 93.861 123.035 91.1296 123.035 91.1296C119.093 89.8224 119.457 86.8434 120.4 84.0914L114.015 77.6104Z" fill="#FFBE9D"/>
<path opacity="0.2" d="M116.616 80.2592L120.4 84.0914C120.168 84.7283 119.993 85.3844 119.877 86.0522C118.357 85.7013 116.155 84.1189 116.134 82.4952C116.162 81.7274 116.325 80.9705 116.616 80.2592Z" fill="black"/>
<path d="M122.381 62.9285C123.585 61.6006 125.973 63.2931 126.853 66.5474C128.174 71.3634 124.652 71.7074 122.808 69.2994C120.964 66.8914 121.377 64.0362 122.381 62.9285Z" fill="#24221E"/>
<path d="M126.11 71.384C127.318 71.802 128.461 72.3905 129.502 73.1315C128.904 71.673 128.367 70.7854 126.11 71.384Z" fill="#24221E"/>
<path d="M126.805 71.6111C127.783 71.4163 128.784 71.3607 129.777 71.4459C128.8 70.696 128.092 70.3245 126.805 71.6111Z" fill="#24221E"/>
<path d="M110.768 71.8725C112.302 77.7411 112.832 80.2592 116.423 82.7154C121.838 86.4168 128.711 83.252 128.966 77.0394C129.193 71.4528 126.647 62.7978 120.366 61.5731C118.981 61.2921 117.548 61.371 116.203 61.8021C114.858 62.2332 113.646 63.0023 112.683 64.0356C111.72 65.069 111.039 66.3321 110.703 67.7042C110.368 69.0763 110.39 70.5115 110.768 71.8725Z" fill="#FFBE9D"/>
<path d="M113.602 64.1325L111.903 66.107C111.393 66.6904 110.674 67.0494 109.901 67.106C109.128 67.1627 108.365 66.9125 107.775 66.4098C107.191 65.9009 106.83 65.1821 106.772 64.4093C106.714 63.6366 106.963 62.8721 107.465 62.2818L109.165 60.3141C109.675 59.7313 110.393 59.3722 111.165 59.3143C111.938 59.2564 112.702 59.5042 113.293 60.0045C113.876 60.5144 114.235 61.2329 114.293 62.0051C114.35 62.7773 114.103 63.5414 113.602 64.1325Z" fill="white"/>
<path d="M115.171 66.3341L113.107 67.3661C112.26 67.781 111.283 67.8439 110.39 67.5409C109.497 67.238 108.76 66.5939 108.339 65.7493C107.924 64.9011 107.861 63.9232 108.164 63.0288C108.467 62.1344 109.111 61.396 109.956 60.9746L112.02 59.9426C112.869 59.5278 113.848 59.4658 114.742 59.77C115.637 60.0742 116.375 60.7199 116.795 61.5662C117.209 62.4142 117.271 63.3918 116.967 64.2852C116.663 65.1787 116.017 65.9153 115.171 66.3341Z" fill="#871E35"/>
<path d="M112.529 76.2619C112.529 76.2619 116.768 75.2918 114.965 69.093C114.898 68.8544 114.886 68.6036 114.931 68.3598C114.975 68.116 115.075 67.8857 115.223 67.6864C115.37 67.4872 115.561 67.3243 115.781 67.2104C116.001 67.0964 116.245 67.0344 116.492 67.029C121.267 66.8982 125.732 65.9006 125.099 63.1349C124.308 59.6398 112.413 56.9429 110.252 63.9398C106.035 64.9237 105.877 73.2347 112.529 76.2619Z" fill="#24221E"/>
<path d="M112.55 75.0373C113.758 75.4553 114.9 76.0438 115.942 76.7848C115.343 75.34 114.806 74.4525 112.55 75.0373Z" fill="#24221E"/>
<path d="M113.245 75.2781C114.223 75.0834 115.223 75.0278 116.217 75.113C115.247 74.3768 114.538 73.9984 113.245 75.2781Z" fill="#24221E"/>
<path d="M109.805 76.4821C110.354 77.5185 111.292 78.2953 112.412 78.6424C113.905 79.0896 114.676 77.7687 114.291 76.3445C113.94 75.0648 112.743 73.2967 111.236 73.4687C110.908 73.514 110.597 73.6401 110.33 73.8357C110.063 74.0313 109.849 74.2902 109.707 74.5891C109.565 74.888 109.5 75.2175 109.517 75.548C109.534 75.8784 109.633 76.1994 109.805 76.4821Z" fill="#FFBE9D"/>
<path d="M120.717 71.673C120.813 72.1546 121.15 72.4986 121.46 72.4366C121.769 72.3747 121.955 71.9275 121.865 71.4459C121.776 70.9643 121.432 70.6203 121.116 70.6822C120.799 70.7442 120.62 71.1845 120.717 71.673Z" fill="#24221E"/>
<path d="M126.186 70.5928C126.283 71.0813 126.613 71.4184 126.929 71.3565C127.246 71.2946 127.425 70.8542 127.328 70.3726C127.232 69.891 126.902 69.547 126.585 69.609C126.269 69.6709 126.09 70.1112 126.186 70.5928Z" fill="#24221E"/>
<path d="M126.455 69.664L127.549 69.0998C127.549 69.0998 127.129 70.125 126.455 69.664Z" fill="#24221E"/>
<path d="M124.308 71.8037C124.955 72.8237 125.74 73.7497 126.64 74.5557C126.43 74.7857 126.172 74.9665 125.884 75.0854C125.596 75.2044 125.286 75.2584 124.975 75.2437L124.308 71.8037Z" fill="#ED847E"/>
<path d="M122.739 77.521C121.721 77.534 120.737 77.1574 119.987 76.4683C119.965 76.4452 119.953 76.4144 119.953 76.3823C119.953 76.3502 119.965 76.3194 119.987 76.2963C120.01 76.274 120.041 76.2616 120.073 76.2616C120.105 76.2616 120.136 76.274 120.159 76.2963C120.622 76.7046 121.175 76.9977 121.773 77.152C122.371 77.3062 122.997 77.3171 123.599 77.1838C123.63 77.1784 123.662 77.1854 123.688 77.2035C123.714 77.2216 123.731 77.2491 123.737 77.2802C123.742 77.3112 123.735 77.3431 123.717 77.3689C123.699 77.3947 123.672 77.4123 123.641 77.4178C123.345 77.4843 123.043 77.5189 122.739 77.521Z" fill="#24221E"/>
<path d="M117.435 69.7947C117.391 69.7929 117.349 69.7812 117.311 69.7603C117.256 69.7275 117.217 69.6742 117.201 69.6123C117.186 69.5504 117.195 69.4848 117.228 69.4301C117.456 69.0435 117.772 68.7169 118.152 68.4775C118.531 68.2382 118.962 68.093 119.409 68.0541C119.472 68.054 119.533 68.0782 119.58 68.1217C119.626 68.1652 119.653 68.2247 119.657 68.288C119.658 68.3196 119.652 68.3511 119.641 68.3807C119.63 68.4103 119.613 68.4373 119.591 68.4603C119.569 68.4833 119.543 68.5018 119.514 68.5147C119.486 68.5277 119.454 68.5348 119.423 68.5357C119.054 68.5763 118.7 68.7042 118.39 68.9087C118.08 69.1133 117.823 69.3887 117.641 69.7122C117.616 69.7415 117.584 69.7643 117.548 69.7787C117.512 69.7931 117.473 69.7986 117.435 69.7947Z" fill="#24221E"/>
<path d="M127.707 67.8545C127.668 67.8648 127.628 67.8648 127.59 67.8545C127.269 67.6653 126.908 67.5543 126.536 67.5304C126.165 67.5065 125.793 67.5704 125.45 67.7169C125.389 67.748 125.318 67.7534 125.253 67.7321C125.188 67.7109 125.134 67.6646 125.103 67.6034C125.072 67.5423 125.066 67.4714 125.087 67.4062C125.109 67.341 125.155 67.287 125.216 67.256C125.628 67.0693 126.079 66.985 126.531 67.0101C126.982 67.0353 127.421 67.1692 127.81 67.4005C127.837 67.4155 127.862 67.4359 127.881 67.4604C127.9 67.4849 127.915 67.5131 127.923 67.5432C127.931 67.5734 127.934 67.6049 127.93 67.6359C127.925 67.667 127.915 67.6968 127.899 67.7238C127.882 67.761 127.855 67.7927 127.821 67.8158C127.787 67.8388 127.748 67.8522 127.707 67.8545Z" fill="#24221E"/>
<path d="M113.94 135.753L119.444 136.139L116.96 142.021C116.96 142.021 112.364 140.569 112.178 137.205L113.94 135.753Z" fill="#FFBE9D"/>
<path d="M121.556 139.468L118.893 143.486L116.967 142.021L119.464 136.139L121.556 139.468Z" fill="#FFBE9D"/>
<path d="M120.985 70.7373L122.079 70.1731C122.079 70.1731 121.659 71.1982 120.985 70.7373Z" fill="#24221E"/>
</svg>
