<svg width="20" height="20" viewBox="0 0 20 20" fill="none" xmlns="http://www.w3.org/2000/svg">
<g clip-path="url(#clip0_9304_1280)">
<path d="M16.3871 5.92619C16.2342 6.07908 16.2342 6.32697 16.3871 6.47986L17.346 7.43876H12.0922C11.5737 7.43876 11.0862 7.64068 10.7195 8.00736C10.3528 8.374 10.1509 8.8615 10.1509 9.38005V10.4649C10.1509 10.6811 10.3262 10.8564 10.5424 10.8564C10.7586 10.8564 10.9339 10.6811 10.9339 10.4649V9.38005C10.9339 8.74138 11.4535 8.22181 12.0922 8.22181H17.346L16.3871 9.18072C16.2342 9.33361 16.2342 9.5815 16.3871 9.73439C16.4635 9.81083 16.5637 9.84908 16.6639 9.84908C16.7641 9.84908 16.8643 9.81083 16.9408 9.73439L18.568 8.10712C18.7209 7.95423 18.7209 7.70634 18.568 7.55345L16.9408 5.92623C16.7879 5.7733 16.54 5.7733 16.3871 5.92619Z" fill="#7C7A78"/>
<path d="M18.6085 13.2124C18.3625 12.6306 18.0102 12.1081 17.5616 11.6595C17.113 11.2109 16.5906 10.8587 16.0087 10.6126C15.4061 10.3577 14.7662 10.2285 14.1068 10.2285C13.4474 10.2285 12.8075 10.3577 12.2049 10.6126C11.6231 10.8587 11.1006 11.2109 10.652 11.6595C10.2034 12.1081 9.8512 12.6305 9.60511 13.2124C9.35023 13.815 9.22101 14.4549 9.22101 15.1143C9.22101 15.7738 9.35023 16.4136 9.60511 17.0163C9.8512 17.5981 10.2034 18.1205 10.652 18.5691C11.1006 19.0177 11.6231 19.37 12.2049 19.6161C12.8075 19.8709 13.4474 20.0002 14.1068 20.0002C14.7662 20.0002 15.4061 19.8709 16.0087 19.6161C16.5906 19.37 17.113 19.0177 17.5616 18.5691C18.0102 18.1205 18.3625 17.5981 18.6085 17.0163C18.8634 16.4136 18.9927 15.7738 18.9927 15.1143C18.9927 14.4549 18.8634 13.815 18.6085 13.2124ZM14.1069 19.2171C11.8446 19.2171 10.0041 17.3766 10.0041 15.1143C10.0041 12.852 11.8446 11.0115 14.1069 11.0115C16.3691 11.0115 18.2096 12.852 18.2096 15.1143C18.2096 17.3766 16.3691 19.2171 14.1069 19.2171Z" fill="#7C7A78"/>
<path d="M16.2765 14.7228H14.4983V11.8598C14.4983 11.6436 14.323 11.4683 14.1068 11.4683C13.8905 11.4683 13.7153 11.6436 13.7153 11.8598V15.1143C13.7153 15.3305 13.8905 15.5058 14.1068 15.5058H16.2764C16.4927 15.5058 16.668 15.3306 16.668 15.1143C16.668 14.8981 16.4927 14.7228 16.2765 14.7228ZM3.72343 5.73421C3.50722 5.73421 3.33191 5.90948 3.33191 6.12573V6.43569C3.33191 7.07886 3.85515 7.60206 4.49828 7.60206H4.72668V7.98542C4.72668 8.20163 4.90195 8.37694 5.1182 8.37694C5.33441 8.37694 5.50972 8.20167 5.50972 7.98542V7.60206H5.73812C6.38128 7.60206 6.90453 7.07882 6.90453 6.43569V5.81581C6.90453 5.17269 6.38128 4.64944 5.73812 4.64944H4.49832C4.28695 4.64944 4.11496 4.47745 4.11496 4.26608V3.64612C4.11496 3.43476 4.28695 3.26276 4.49832 3.26276H5.73812C5.94953 3.26276 6.12148 3.43476 6.12148 3.64612V3.95608C6.12148 4.17229 6.29675 4.34761 6.513 4.34761C6.72925 4.34761 6.90453 4.17233 6.90453 3.95608V3.64612C6.90453 3.00296 6.38128 2.47976 5.73812 2.47976H5.50972V2.09636C5.50972 1.88015 5.33445 1.70483 5.1182 1.70483C4.90199 1.70483 4.72668 1.88011 4.72668 2.09636V2.47976H4.49828C3.85515 2.47976 3.33191 3.003 3.33191 3.64612V4.26601C3.33191 4.90917 3.85515 5.43241 4.49828 5.43241H5.73808C5.94949 5.43241 6.12144 5.6044 6.12144 5.81577V6.43565C6.12144 6.64702 5.94945 6.81901 5.73808 6.81901H4.49828C4.28691 6.81901 4.11492 6.64702 4.11492 6.43565V6.12569C4.11496 5.90948 3.93968 5.73421 3.72343 5.73421Z" fill="#7C7A78"/>
<path d="M10.5424 19.217H2.01873C1.95818 19.2169 1.90013 19.1928 1.85731 19.15C1.81449 19.1072 1.7904 19.0491 1.79033 18.9886V2.09625C1.79033 1.37215 2.37943 0.783008 3.10357 0.783008H14.1775C13.8781 1.15414 13.7153 1.61266 13.7153 2.09625V6.59055C13.7153 6.80676 13.8906 6.98207 14.1069 6.98207C14.3231 6.98207 14.4984 6.8068 14.4984 6.59055V5.12234H17.2064C17.5932 5.12234 17.9078 4.80766 17.9078 4.4209V2.09625C17.9078 1.53633 17.6898 1.00992 17.2938 0.613984C16.8979 0.218047 16.3715 0 15.8116 0H3.10357C2.54365 0 2.01725 0.218047 1.62131 0.613984C1.22537 1.00988 1.00732 1.53633 1.00732 2.09625V18.9886C1.00732 19.5463 1.46104 20 2.01873 20H10.5424C10.7586 20 10.9339 19.8247 10.9339 19.6085C10.9339 19.3922 10.7586 19.217 10.5424 19.217ZM17.1248 2.09625V4.33934H14.4983V2.09625C14.4983 1.37215 15.0874 0.783047 15.8115 0.783008H15.8116C16.5357 0.783008 17.1248 1.37211 17.1248 2.09625Z" fill="#7C7A78"/>
<path d="M8.06279 4.3475H12.4021C12.6183 4.3475 12.7936 4.17223 12.7936 3.95598C12.7936 3.73977 12.6183 3.56445 12.4021 3.56445H8.06279C7.84658 3.56445 7.67127 3.73973 7.67127 3.95598C7.67127 4.17223 7.84658 4.3475 8.06279 4.3475ZM12.7936 6.43559C12.7936 6.21938 12.6183 6.04406 12.4021 6.04406H8.06279C7.84658 6.04406 7.67127 6.21934 7.67127 6.43559C7.67127 6.6518 7.84654 6.82711 8.06279 6.82711H12.4021C12.6183 6.82711 12.7936 6.65184 12.7936 6.43559ZM8.83767 8.98863H3.41354C3.19732 8.98863 3.02201 9.16391 3.02201 9.38016C3.02201 9.59641 3.19729 9.77168 3.41354 9.77168H8.83767C9.05389 9.77168 9.2292 9.59641 9.2292 9.38016C9.2292 9.16391 9.05389 8.98863 8.83767 8.98863ZM9.22916 11.8598C9.22916 11.6436 9.05389 11.4682 8.83764 11.4682H3.41354C3.19732 11.4682 3.02201 11.6435 3.02201 11.8598C3.02201 12.076 3.19729 12.2513 3.41354 12.2513H8.83767C9.05389 12.2513 9.22916 12.076 9.22916 11.8598ZM8.06279 13.9479H3.4135C3.19729 13.9479 3.02197 14.1231 3.02197 14.3394C3.02197 14.5556 3.19725 14.7309 3.4135 14.7309H8.06275C8.27896 14.7309 8.45428 14.5556 8.45428 14.3394C8.45428 14.1231 8.279 13.9479 8.06279 13.9479ZM3.4135 16.4275C3.19729 16.4275 3.02197 16.6027 3.02197 16.819C3.02197 17.0352 3.19725 17.2105 3.4135 17.2105H8.06275C8.27896 17.2105 8.45428 17.0352 8.45428 16.819C8.45428 16.6027 8.279 16.4275 8.06275 16.4275H3.4135Z" fill="#7C7A78"/>
</g>
<defs>
<clipPath id="clip0_9304_1280">
<rect width="20" height="20" fill="white"/>
</clipPath>
</defs>
</svg>
