<svg width="37" height="36" viewBox="0 0 37 36" fill="none" xmlns="http://www.w3.org/2000/svg">
<g clip-path="url(#clip0_107_1364)">
<circle cx="18.2298" cy="18" r="16.7673" fill="white" stroke="#871E35" stroke-width="2.23564"/>
<path d="M11.6063 18.9243C11.6063 17.2054 11.8944 15.864 12.4707 14.9002C13.057 13.9265 14.0605 13.4396 15.4814 13.4396C16.9023 13.4396 17.9008 13.9265 18.4771 14.9002C19.0634 15.864 19.3565 17.2054 19.3565 18.9243C19.3565 20.6632 19.0634 22.0244 18.4771 23.0081C17.9008 23.9819 16.9023 24.4687 15.4814 24.4687C14.0605 24.4687 13.057 23.9819 12.4707 23.0081C11.8944 22.0244 11.6063 20.6632 11.6063 18.9243ZM17.6872 18.9243C17.6872 18.1195 17.6326 17.4389 17.5233 16.8825C17.4239 16.326 17.2152 15.8739 16.8973 15.5262C16.5793 15.1685 16.1074 14.9896 15.4814 14.9896C14.8554 14.9896 14.3834 15.1685 14.0655 15.5262C13.7475 15.8739 13.5339 16.326 13.4246 16.8825C13.3252 17.4389 13.2756 18.1195 13.2756 18.9243C13.2756 19.759 13.3252 20.4595 13.4246 21.0258C13.524 21.5922 13.7326 22.0493 14.0506 22.397C14.3785 22.7448 14.8554 22.9187 15.4814 22.9187C16.1074 22.9187 16.5793 22.7448 16.8973 22.397C17.2252 22.0493 17.4388 21.5922 17.5382 21.0258C17.6375 20.4595 17.6872 19.759 17.6872 18.9243ZM20.9307 15.1834V13.6333H24.0308V24.4985H22.3168V15.1834H20.9307Z" fill="#871E35"/>
</g>
<defs>
<clipPath id="clip0_107_1364">
<rect width="35.7702" height="35.7702" fill="white" transform="translate(0.344727 0.114868)"/>
</clipPath>
</defs>
</svg>
