<svg width="32" height="33" viewBox="0 0 32 33" fill="none" xmlns="http://www.w3.org/2000/svg">
<g clip-path="url(#clip0_120_2903)">
<path d="M16.8933 3.066L28.2267 9.39934C28.5594 9.56543 28.8392 9.82098 29.0346 10.1373C29.2301 10.4536 29.3336 10.8182 29.3333 11.19V13.11C29.3333 14.03 28.5867 14.7767 27.6667 14.7767H26.6667V25.4433H28C28.3536 25.4433 28.6928 25.5838 28.9428 25.8339C29.1929 26.0839 29.3333 26.423 29.3333 26.7767C29.3333 27.1303 29.1929 27.4694 28.9428 27.7195C28.6928 27.9695 28.3536 28.11 28 28.11H4C3.64638 28.11 3.30724 27.9695 3.05719 27.7195C2.80714 27.4694 2.66666 27.1303 2.66666 26.7767C2.66666 26.423 2.80714 26.0839 3.05719 25.8339C3.30724 25.5838 3.64638 25.4433 4 25.4433H5.33333V14.7767H4.33333C3.41333 14.7767 2.66666 14.03 2.66666 13.11V11.19C2.66666 10.494 3.02666 9.854 3.608 9.49133L15.1053 3.066C15.3831 2.92707 15.6894 2.85474 16 2.85474C16.3106 2.85474 16.6156 2.92707 16.8933 3.066ZM24 14.7767H8V25.4433H12V17.4433H14.6667V25.4433H17.3333V17.4433H20V25.4433H24V14.7767ZM16 5.60067L5.33333 11.6007V12.11H26.6667V11.6007L16 5.60067ZM16 8.11C16.3536 8.11 16.6928 8.25048 16.9428 8.50053C17.1929 8.75058 17.3333 9.08971 17.3333 9.44334C17.3333 9.79696 17.1929 10.1361 16.9428 10.3861C16.6928 10.6362 16.3536 10.7767 16 10.7767C15.6464 10.7767 15.3072 10.6362 15.0572 10.3861C14.8071 10.1361 14.6667 9.79696 14.6667 9.44334C14.6667 9.08971 14.8071 8.75058 15.0572 8.50053C15.3072 8.25048 15.6464 8.11 16 8.11Z" fill="#3C3A37"/>
</g>
<defs>
<clipPath id="clip0_120_2903">
<rect width="32" height="32" fill="white" transform="translate(0 0.109863)"/>
</clipPath>
</defs>
</svg>
