<svg width="28" height="29" viewBox="0 0 28 29" fill="none" xmlns="http://www.w3.org/2000/svg">
<path d="M20.2448 26.7868C18.95 26.7868 17.5864 26.4774 16.177 25.8816C14.802 25.2972 13.4156 24.4951 12.0635 23.5212C10.7229 22.5357 9.42808 21.4357 8.20204 20.2326C6.98746 19.0066 5.88746 17.7118 4.9135 16.3826C3.92808 15.0076 3.13746 13.6326 2.576 12.3035C1.98017 10.8826 1.68225 9.50762 1.68225 8.21283C1.68225 7.31908 1.84267 6.47116 2.15204 5.68053C2.47288 4.86699 2.9885 4.11074 3.68746 3.45762C4.56975 2.58678 5.57808 2.15137 6.65517 2.15137C7.10204 2.15137 7.56038 2.25449 7.94996 2.43783C8.39683 2.64408 8.77496 2.95345 9.04996 3.36595L11.7083 7.11283C11.9489 7.44512 12.1323 7.76595 12.2583 8.08678C12.4073 8.43053 12.4875 8.77428 12.4875 9.10658C12.4875 9.54199 12.3614 9.96595 12.1208 10.367C11.9489 10.6764 11.6854 11.0087 11.3531 11.341L10.5739 12.1545C10.5854 12.1889 10.5968 12.2118 10.6083 12.2347C10.7458 12.4753 11.0208 12.8878 11.5479 13.5066C12.1093 14.1482 12.6364 14.7326 13.1635 15.2712C13.8395 15.9357 14.401 16.4628 14.9281 16.8982C15.5812 17.4482 16.0052 17.7232 16.2573 17.8493L16.2343 17.9066L17.0708 17.0816C17.426 16.7264 17.7698 16.4628 18.102 16.291C18.7323 15.9014 19.5343 15.8326 20.3364 16.1649C20.6343 16.291 20.9552 16.4628 21.2989 16.7035L25.1031 19.4076C25.527 19.6941 25.8364 20.0607 26.0198 20.4962C26.1916 20.9316 26.2718 21.3326 26.2718 21.7337C26.2718 22.2837 26.1458 22.8337 25.9052 23.3493C25.6645 23.8649 25.3666 24.3118 24.9885 24.7243C24.3354 25.4462 23.625 25.9618 22.8 26.2941C22.0093 26.6149 21.15 26.7868 20.2448 26.7868ZM6.65517 3.87012C6.02496 3.87012 5.44058 4.14512 4.87913 4.69512C4.35204 5.18783 3.98538 5.72637 3.75621 6.31074C3.51558 6.90658 3.401 7.53678 3.401 8.21283C3.401 9.27845 3.65308 10.4357 4.15725 11.6274C4.67288 12.842 5.39475 14.1024 6.31142 15.3628C7.22808 16.6232 8.27079 17.8493 9.41663 19.0066C10.5625 20.141 11.8 21.1951 13.0718 22.1232C14.3093 23.0285 15.5812 23.7618 16.8416 24.2889C18.801 25.1253 20.6343 25.3201 22.1468 24.6899C22.7312 24.4493 23.2468 24.0826 23.7166 23.5555C23.9802 23.2691 24.1864 22.9597 24.3583 22.593C24.4958 22.3066 24.5645 22.0087 24.5645 21.7107C24.5645 21.5274 24.5302 21.3441 24.4385 21.1378C24.4041 21.0691 24.3354 20.943 24.1177 20.7941L20.3135 18.0899C20.0843 17.9295 19.8781 17.8149 19.6833 17.7347C19.4312 17.6316 19.3281 17.5285 18.9385 17.7691C18.7093 17.8837 18.5031 18.0555 18.2739 18.2847L17.4031 19.1441C16.9562 19.5795 16.2687 19.6826 15.7416 19.4878L15.4323 19.3503C14.9625 19.0982 14.4125 18.7087 13.8052 18.193C13.2552 17.7232 12.6593 17.1732 11.9375 16.4628C11.376 15.8899 10.8145 15.2826 10.2302 14.6066C9.69163 13.9764 9.30204 13.4378 9.06142 12.991L8.92392 12.6472C8.85517 12.3837 8.83225 12.2347 8.83225 12.0743C8.83225 11.6618 8.98121 11.2951 9.26767 11.0087L10.127 10.1149C10.3562 9.88574 10.5281 9.66803 10.6427 9.47324C10.7343 9.32428 10.7687 9.19824 10.7687 9.08366C10.7687 8.99199 10.7343 8.85449 10.677 8.71699C10.5968 8.53366 10.4708 8.32741 10.3104 8.1097L7.65204 4.35137C7.53746 4.19095 7.39996 4.07637 7.22808 3.99616C7.04475 3.91595 6.84996 3.87012 6.65517 3.87012ZM16.2343 17.918L16.051 18.6972L16.3604 17.8951C16.3031 17.8837 16.2573 17.8951 16.2343 17.918Z" fill="#871E35"/>
<path d="M23.1666 11.6621C22.6968 11.6621 22.3073 11.2725 22.3073 10.8027V6.16211H17.6666C17.1968 6.16211 16.8073 5.77253 16.8073 5.30273C16.8073 4.83294 17.1968 4.44336 17.6666 4.44336H23.1666C23.6364 4.44336 24.026 4.83294 24.026 5.30273V10.8027C24.026 11.2725 23.6364 11.6621 23.1666 11.6621Z" fill="#871E35"/>
</svg>
