<svg width="21" height="20" viewBox="0 0 21 20" fill="none" xmlns="http://www.w3.org/2000/svg">
<path d="M18.0916 4.46655L18.5334 4.90843L19.7834 3.65843C19.842 3.59983 19.8749 3.52035 19.8749 3.43749C19.8749 3.35463 19.842 3.27516 19.7834 3.21655L18.5334 1.96655L18.0916 2.40843L18.8081 3.12499H15.1875V3.74999H18.8081L18.0916 4.46655ZM16.2166 7.40843L16.6584 6.96655L15.9419 6.24999H19.5625V5.62499H15.9419L16.6584 4.90843L16.2166 4.46655L14.9666 5.71655C14.908 5.77515 14.8751 5.85463 14.8751 5.93749C14.8751 6.02035 14.908 6.09983 14.9666 6.15843L16.2166 7.40843Z" fill="#565552"/>
<path d="M19.5094 9.74063C19.2879 9.51839 18.9905 9.38812 18.6769 9.37595C18.3634 9.36378 18.0568 9.4706 17.8187 9.675C17.7095 9.4886 17.5533 9.33401 17.3659 9.22657C17.1784 9.11913 16.9661 9.06257 16.75 9.0625C16.6102 9.06053 16.4714 9.08491 16.3406 9.13437C16.1958 9.18554 16.0621 9.26404 15.9469 9.36562C15.8369 9.1789 15.6803 9.02398 15.4924 8.91605C15.3044 8.80812 15.0917 8.7509 14.875 8.75C14.6551 8.75064 14.4393 8.80997 14.25 8.92188V3.75C14.25 3.41848 14.1183 3.10054 13.8839 2.86612C13.6495 2.6317 13.3315 2.5 13 2.5C12.7801 2.50064 12.5643 2.55997 12.375 2.67188V1.5625C12.3743 1.31409 12.2752 1.07606 12.0996 0.900407C11.9239 0.724752 11.6859 0.625742 11.4375 0.625H3.9375C3.68909 0.625742 3.45106 0.724752 3.27541 0.900407C3.09975 1.07606 3.00074 1.31409 3 1.5625V7.8125H2.6875C2.2731 7.8125 1.87567 7.97712 1.58265 8.27015C1.28962 8.56317 1.125 8.9606 1.125 9.375V10.6531L1.75 17.2031V19.0625C1.75 19.1454 1.78292 19.2249 1.84153 19.2835C1.90013 19.3421 1.97962 19.375 2.0625 19.375H8.9375C9.02038 19.375 9.09987 19.3421 9.15847 19.2835C9.21708 19.2249 9.25 19.1454 9.25 19.0625V17.2875L10.4125 15.625H11.0844L11.4375 16.6156V19.0625C11.4375 19.1454 11.4704 19.2249 11.529 19.2835C11.5876 19.3421 11.6671 19.375 11.75 19.375H18C18.0829 19.375 18.1624 19.3421 18.221 19.2835C18.2796 19.2249 18.3125 19.1454 18.3125 19.0625V16.6156L19.7469 12.5969C19.8313 12.3612 19.8746 12.1128 19.875 11.8625V10.625C19.8751 10.4608 19.8429 10.2982 19.7802 10.1464C19.7174 9.99469 19.6254 9.8568 19.5094 9.74063ZM8.625 18.75H2.375V17.5H8.625V18.75ZM8.775 16.875H2.34687L1.75 10.625V9.375C1.75074 9.12659 1.84975 8.88856 2.02541 8.71291C2.20106 8.53725 2.43909 8.43824 2.6875 8.4375H4.875C5.12364 8.4375 5.3621 8.53627 5.53791 8.71209C5.71373 8.8879 5.8125 9.12636 5.8125 9.375C5.8125 9.62364 5.71373 9.8621 5.53791 10.0379C5.3621 10.2137 5.12364 10.3125 4.875 10.3125H3.3125C3.22962 10.3125 3.15013 10.3454 3.09153 10.404C3.03292 10.4626 3 10.5421 3 10.625V14.6875C3.00074 14.9359 3.09975 15.1739 3.27541 15.3496C3.45106 15.5252 3.68909 15.6243 3.9375 15.625H9.65L8.775 16.875ZM3.9375 15C3.85462 15 3.77513 14.9671 3.71653 14.9085C3.65792 14.8499 3.625 14.7704 3.625 14.6875V13.75H9.25V13.125H3.625V10.9375H4.875C5.2894 10.9375 5.68683 10.7729 5.97985 10.4799C6.27288 10.1868 6.4375 9.7894 6.4375 9.375C6.4375 8.9606 6.27288 8.56317 5.97985 8.27015C5.68683 7.97712 5.2894 7.8125 4.875 7.8125H3.625V1.5625C3.625 1.47962 3.65792 1.40013 3.71653 1.34153C3.77513 1.28292 3.85462 1.25 3.9375 1.25H11.4375C11.5204 1.25 11.5999 1.28292 11.6585 1.34153C11.7171 1.40013 11.75 1.47962 11.75 1.5625V7.9875C11.5602 7.87359 11.3432 7.81312 11.1219 7.8125C10.7914 7.81332 10.4748 7.94496 10.2411 8.17861C10.0075 8.41227 9.87582 8.72894 9.875 9.05937V11.8625C9.87563 12.1138 9.91896 12.3632 10.0031 12.6L10.8594 15H3.9375ZM13 18.75H12.0625V16.875H13V18.75ZM14.5625 18.75H13.625V16.875H14.5625V18.75ZM16.125 18.75H15.1875V16.875H16.125V18.75ZM17.6875 18.75H16.75V16.875H17.6875V18.75ZM19.25 11.8625C19.2496 12.0414 19.219 12.2189 19.1594 12.3875L17.7812 16.25H11.9688L10.5906 12.3906C10.5313 12.2208 10.5006 12.0424 10.5 11.8625V9.05937C10.5002 8.9773 10.5166 8.89607 10.5482 8.82032C10.5798 8.74457 10.626 8.67578 10.6842 8.61789C10.7423 8.56 10.8114 8.51413 10.8873 8.48291C10.9632 8.45169 11.0445 8.43573 11.1266 8.43594C11.2086 8.43614 11.2899 8.45251 11.3656 8.48411C11.4414 8.51571 11.5102 8.56192 11.568 8.6201C11.6259 8.67828 11.6718 8.7473 11.703 8.8232C11.7342 8.89911 11.7502 8.98042 11.75 9.0625V11.5625H12.375V3.75C12.3762 3.58462 12.4425 3.42636 12.5594 3.30941C12.6764 3.19247 12.8346 3.12623 13 3.125C13.1656 3.12549 13.3243 3.1915 13.4414 3.3086C13.5585 3.42571 13.6245 3.58439 13.625 3.75V11.5625H14.25V10C14.2512 9.83462 14.3175 9.67636 14.4344 9.55941C14.5514 9.44247 14.7096 9.37623 14.875 9.375C15.0406 9.37549 15.1993 9.4415 15.3164 9.5586C15.4335 9.67571 15.4995 9.83439 15.5 10V11.5625H16.125V10.3125C16.1251 10.2305 16.1414 10.1493 16.173 10.0737C16.2047 9.99807 16.251 9.92947 16.3094 9.87187C16.3755 9.80215 16.4583 9.75051 16.55 9.72188C16.6141 9.69883 16.6818 9.68719 16.75 9.6875C16.9156 9.68799 17.0743 9.754 17.1914 9.8711C17.3085 9.98821 17.3745 10.1469 17.375 10.3125V11.875H18V10.625C18.0005 10.4594 18.0665 10.3007 18.1836 10.1836C18.3007 10.0665 18.4594 10.0005 18.625 10C18.7904 10.0012 18.9486 10.0675 19.0656 10.1844C19.1825 10.3014 19.2488 10.4596 19.25 10.625V11.8625Z" fill="#565552"/>
<path d="M7.6875 1.875C7.06943 1.875 6.46525 2.05828 5.95134 2.40166C5.43744 2.74504 5.0369 3.2331 4.80038 3.80411C4.56385 4.37513 4.50197 5.00347 4.62255 5.60966C4.74313 6.21585 5.04075 6.77267 5.47779 7.20971C5.91483 7.64675 6.47165 7.94438 7.07784 8.06495C7.68404 8.18553 8.31237 8.12365 8.88339 7.88712C9.45441 7.6506 9.94246 7.25006 10.2858 6.73616C10.6292 6.22225 10.8125 5.61807 10.8125 5C10.8112 4.1716 10.4815 3.37752 9.89575 2.79175C9.30998 2.20599 8.5159 1.87632 7.6875 1.875ZM7.6875 7.5C7.19305 7.5 6.7097 7.35338 6.29858 7.07867C5.88745 6.80397 5.56702 6.41352 5.3778 5.95671C5.18858 5.49989 5.13908 4.99723 5.23554 4.51227C5.332 4.02732 5.5701 3.58186 5.91973 3.23223C6.26937 2.8826 6.71482 2.6445 7.19978 2.54804C7.68473 2.45157 8.1874 2.50108 8.64421 2.6903C9.10103 2.87952 9.49147 3.19995 9.76618 3.61107C10.0409 4.0222 10.1875 4.50555 10.1875 5C10.1866 5.66276 9.92291 6.29812 9.45426 6.76676C8.98562 7.23541 8.35026 7.49909 7.6875 7.5Z" fill="#565552"/>
<path d="M8.625 5.625C8.624 5.81831 8.56347 6.00662 8.45164 6.16431C8.33981 6.32199 8.18211 6.44139 8 6.50625V6.875H7.375V6.50625C7.19289 6.44139 7.03519 6.32199 6.92336 6.16431C6.81153 6.00662 6.751 5.81831 6.75 5.625H7.375C7.375 5.68681 7.39333 5.74723 7.42767 5.79862C7.462 5.85001 7.51081 5.89006 7.56791 5.91371C7.62501 5.93736 7.68785 5.94355 7.74847 5.9315C7.80909 5.91944 7.86477 5.88967 7.90847 5.84597C7.95218 5.80227 7.98194 5.74659 7.994 5.68597C8.00605 5.62535 7.99986 5.56251 7.97621 5.50541C7.95256 5.44831 7.91251 5.3995 7.86112 5.36517C7.80973 5.33083 7.74931 5.3125 7.6875 5.3125C7.46764 5.31079 7.25538 5.23187 7.08781 5.08953C6.92025 4.94718 6.80804 4.75047 6.77081 4.53378C6.73358 4.3171 6.77369 4.09422 6.88413 3.9041C6.99458 3.71399 7.16832 3.56874 7.375 3.49375V3.125H8V3.49375C8.18211 3.55861 8.33981 3.67801 8.45164 3.83569C8.56347 3.99338 8.624 4.18169 8.625 4.375H8C8 4.31319 7.98167 4.25277 7.94733 4.20138C7.913 4.14999 7.86419 4.10994 7.80709 4.08629C7.74999 4.06264 7.68715 4.05645 7.62653 4.0685C7.56591 4.08056 7.51023 4.11033 7.46653 4.15403C7.42282 4.19773 7.39306 4.25342 7.381 4.31403C7.36895 4.37465 7.37514 4.43749 7.39879 4.49459C7.42244 4.55169 7.46249 4.6005 7.51388 4.63483C7.56527 4.66917 7.62569 4.6875 7.6875 4.6875C7.93591 4.68824 8.17394 4.78725 8.34959 4.96291C8.52525 5.13856 8.62426 5.37659 8.625 5.625Z" fill="#565552"/>
</svg>
