<svg width="350" height="303" viewBox="0 0 350 303" fill="none" xmlns="http://www.w3.org/2000/svg">
<path d="M90.0693 215.375C112.161 228.213 141.869 230.285 166.593 224.041C179.011 220.898 188.237 214.339 198.94 208.095C213.934 199.338 225.148 200.262 241.941 199.268C290.822 196.384 304.801 149.358 299.544 116.787C293.16 77.181 256.984 45.954 213.696 42.643C184.555 40.417 157.633 44.484 134.82 56.937C117.012 66.66 114.989 81.997 112.084 99.763C109.865 113.322 108.451 128.463 100.107 140.195C92.4703 150.926 81.3753 144.731 71.6593 152.095C46.9003 170.771 71.4633 204.56 90.0693 215.375Z" fill="#E6E6E6"/>
<path d="M175 272.292C249.958 272.292 310.723 268.744 310.723 264.368C310.723 259.992 249.958 256.444 175 256.444C100.043 256.444 39.2773 259.992 39.2773 264.368C39.2773 268.744 100.043 272.292 175 272.292Z" fill="#F5F5F5"/>
<path d="M116.571 52.758L116.13 52.212C119.206 49.7171 122.407 47.3807 125.72 45.212L126.105 45.8C122.81 47.9547 119.628 50.2771 116.571 52.758Z" fill="#24221E"/>
<path d="M111.405 57.175L110.929 56.657C111.867 55.81 112.833 54.963 113.792 54.144L114.247 54.683C113.288 55.495 112.336 56.335 111.405 57.175Z" fill="#24221E"/>
<path d="M188.932 142.604C222.443 113.247 232.842 70.3087 212.159 46.6991C191.476 23.0895 147.543 27.7491 114.032 57.1065C80.5206 86.464 70.1215 129.402 90.8047 153.012C111.488 176.621 155.421 171.962 188.932 142.604Z" fill="#24221E"/>
<path d="M183.969 136.939C213.04 111.472 222.061 74.2233 204.119 53.7427C186.177 33.262 148.066 37.3046 118.995 62.772C89.9244 88.2394 80.9028 125.488 98.8449 145.968C116.787 166.449 154.898 162.406 183.969 136.939Z" fill="white"/>
<path d="M166.005 45.723C135.702 48.18 104.636 74.423 96.6143 104.285L206.353 95.402C214.375 65.512 196.308 43.273 166.005 45.723Z" fill="#E3AC1E"/>
<path opacity="0.7" d="M96.6001 104.285L151.473 99.84L122.955 64.7C110.397 75.312 100.625 89.34 96.6001 104.285Z" fill="white"/>
<path opacity="0.4" d="M166.005 45.723C150.857 46.955 135.513 54.123 122.955 64.714L151.487 99.84L166.005 45.723Z" fill="white"/>
<path opacity="0.1" d="M166.005 45.723L151.487 99.84L200.55 58.435C193.249 49.447 181.16 44.498 166.005 45.723Z" fill="white"/>
<path d="M164.734 114.983C176.595 104.591 180.278 89.3949 172.959 81.0404C165.64 72.6859 150.091 74.337 138.23 84.7283C126.368 95.1195 122.686 110.316 130.005 118.671C137.324 127.025 152.872 125.374 164.734 114.983Z" fill="white"/>
<path d="M159.218 108.685C166.139 102.622 168.286 93.7539 164.014 88.8773C159.741 84.0007 150.668 84.9625 143.747 91.0256C136.826 97.0886 134.679 105.957 138.951 110.834C143.223 115.71 152.297 114.748 159.218 108.685Z" fill="#24221E"/>
<path d="M192.556 70.895C179.501 75.8248 167.123 82.3869 155.715 90.425L160.874 99.665C172.539 91.3663 183.175 81.7083 192.556 70.895Z" fill="#24221E"/>
<path d="M102.9 124.942C102.738 124.95 102.575 124.921 102.425 124.856C102.276 124.791 102.143 124.692 102.038 124.567C101.933 124.443 101.858 124.295 101.82 124.137C101.781 123.978 101.78 123.813 101.815 123.654C101.897 123.26 102.1 122.902 102.397 122.631C102.693 122.359 103.068 122.188 103.467 122.142L163.8 117.361C163.971 117.335 164.145 117.351 164.308 117.408C164.471 117.464 164.617 117.56 164.735 117.686C164.852 117.813 164.937 117.966 164.981 118.132C165.026 118.299 165.029 118.474 164.99 118.642C164.911 119.035 164.709 119.392 164.413 119.663C164.118 119.933 163.744 120.103 163.345 120.147L103.061 124.935L102.9 124.942Z" fill="#871E35"/>
<path d="M155.085 130.682C154.922 130.692 154.759 130.663 154.608 130.599C154.458 130.534 154.325 130.435 154.22 130.31C154.114 130.185 154.04 130.037 154.001 129.878C153.963 129.719 153.963 129.553 154 129.394C154.08 129 154.283 128.642 154.58 128.371C154.877 128.101 155.253 127.932 155.652 127.889L175.252 126.328C175.423 126.301 175.598 126.316 175.762 126.372C175.926 126.428 176.073 126.524 176.192 126.65C176.31 126.777 176.395 126.93 176.44 127.097C176.485 127.265 176.488 127.44 176.449 127.609C176.369 128.003 176.166 128.362 175.869 128.634C175.572 128.905 175.197 129.076 174.797 129.121L155.197 130.675L155.085 130.682Z" fill="#871E35"/>
<path d="M55.4053 155.756C55.2424 155.764 55.0798 155.735 54.9302 155.67C54.7806 155.605 54.6481 155.506 54.543 155.381C54.438 155.257 54.3632 155.109 54.3245 154.951C54.2859 154.792 54.2844 154.627 54.3203 154.468C54.4034 154.071 54.6112 153.711 54.9135 153.44C55.2157 153.169 55.5964 153.002 56.0003 152.963L75.6003 151.402C75.7709 151.376 75.9452 151.393 76.1082 151.449C76.2711 151.506 76.4178 151.602 76.5356 151.728C76.6534 151.854 76.7388 152.007 76.7844 152.173C76.83 152.34 76.8344 152.515 76.7973 152.683C76.7174 153.076 76.5153 153.434 76.2199 153.706C75.9245 153.977 75.5508 154.148 75.1523 154.195L55.5523 155.749L55.4053 155.756Z" fill="#871E35"/>
<path d="M72.8635 144.297C72.7008 144.306 72.5383 144.276 72.3888 144.211C72.2394 144.146 72.1072 144.047 72.0026 143.922C71.898 143.797 71.824 143.65 71.7863 143.491C71.7486 143.333 71.7483 143.168 71.7855 143.009C71.8657 142.617 72.068 142.26 72.3635 141.989C72.659 141.719 73.0325 141.549 73.4305 141.504L132.23 136.835C132.401 136.809 132.575 136.826 132.738 136.882C132.901 136.939 133.048 137.035 133.166 137.161C133.284 137.287 133.369 137.44 133.415 137.606C133.46 137.772 133.465 137.947 133.427 138.116C133.346 138.51 133.143 138.868 132.846 139.139C132.55 139.411 132.175 139.582 131.775 139.628L72.9755 144.29L72.8635 144.297Z" fill="#871E35"/>
<path d="M199.073 207.157L201.565 212.19L213.892 207.759L211.4 202.726L199.073 207.157Z" fill="#FFBE9D"/>
<path d="M139.139 248.548L142.884 252.741L152.404 241.926L147.791 238.72L139.139 248.548Z" fill="#FFBE9D"/>
<path d="M143.738 252.3L141.19 245.937C141.15 245.836 141.075 245.751 140.979 245.699C140.883 245.647 140.772 245.629 140.665 245.65L135.688 246.7C135.565 246.727 135.45 246.781 135.351 246.857C135.251 246.934 135.17 247.031 135.112 247.143C135.055 247.255 135.023 247.378 135.018 247.503C135.014 247.629 135.037 247.754 135.086 247.869C135.94 249.899 136.654 251.369 137.683 253.917C138.32 255.506 140.07 260.357 140.952 262.548C141.834 264.739 144.067 264.067 143.906 263.08C143.157 258.677 143.136 255.114 143.759 253.315C143.879 252.986 143.872 252.624 143.738 252.3Z" fill="#24221E"/>
<path d="M202.132 211.868L199.409 206.366C199.359 206.267 199.277 206.188 199.177 206.142C199.077 206.095 198.964 206.082 198.856 206.107L193.886 207.332C193.765 207.36 193.651 207.415 193.555 207.493C193.458 207.571 193.381 207.671 193.329 207.784C193.276 207.897 193.251 208.02 193.254 208.145C193.257 208.269 193.289 208.391 193.347 208.501C194.362 210.468 195.895 213.275 197.134 215.767C198.576 218.686 198.772 218.777 200.466 222.193C201.488 224.258 203.861 223.803 203.623 222.844C202.531 218.476 201.922 217.72 202.342 213.275C202.403 212.796 202.331 212.309 202.132 211.868Z" fill="#24221E"/>
<path d="M250.6 116.668C250.341 118.488 250.061 120.448 249.844 122.345C249.627 124.242 249.41 126.174 249.249 128.085C248.878 131.82 248.766 135.576 248.913 139.327C248.913 139.782 248.955 140.237 249.011 140.664L249.137 141.91C249.136 142.279 249.25 142.64 249.465 142.94C249.68 143.24 249.984 143.465 250.334 143.583C250.969 143.874 251.64 144.076 252.329 144.185C254.053 144.441 255.799 144.507 257.537 144.381C258.454 144.318 259.392 144.248 260.337 144.136C261.282 144.024 262.241 143.877 263.137 143.744L264.495 147.741C263.527 148.196 262.537 148.6 261.527 148.952C260.53 149.323 259.513 149.641 258.482 149.904C257.425 150.184 256.352 150.401 255.269 150.555C254.125 150.73 252.968 150.805 251.811 150.779C250.512 150.763 249.221 150.568 247.975 150.198C246.457 149.738 245.076 148.908 243.957 147.783C242.792 146.563 241.988 145.044 241.633 143.394C241.584 143.177 241.563 143.058 241.542 142.918L241.472 142.512L241.325 141.686C241.22 141.14 241.15 140.601 241.087 140.062C240.632 135.878 240.543 131.662 240.821 127.462C240.954 125.404 241.101 123.36 241.353 121.33C241.605 119.3 241.85 117.305 242.242 115.198L250.6 116.668Z" fill="#FFBE9D"/>
<path d="M241.633 111.6C237.951 115.513 239.435 125.39 239.435 125.39L249.781 127C249.781 127 252.182 121.4 251.279 115.625C250.173 108.611 245.658 107.295 241.633 111.6Z" fill="#871E35"/>
<path opacity="0.2" d="M245 115.933C243.292 113.735 241.5 112.951 240.548 113.133C238.259 117.62 239.421 125.362 239.421 125.362L246.75 126.552C247.59 124.277 247.695 119.37 245 115.933Z" fill="#24221E"/>
<path d="M261.758 144.353L267.757 140.419L269.087 146.509C269.087 146.509 265.356 150.289 262.248 147.622L261.758 144.353Z" fill="#FFBE9D"/>
<path d="M271.446 139.103L272.139 144.367L269.087 146.509L267.75 140.419L271.446 139.103Z" fill="#FFBE9D"/>
<path opacity="0.2" d="M213.885 207.766L207.536 210.048L205.044 205.008L211.393 202.726L213.885 207.766Z" fill="#24221E"/>
<path opacity="0.2" d="M147.791 238.72L152.404 241.926L147.938 246.994L143.325 243.781L147.791 238.72Z" fill="#24221E"/>
<path d="M220.318 98.097C216.062 119.874 204.729 139.523 203.147 143.863C207.207 145.564 222.53 151.948 230.881 155.427C246.456 132.25 248.843 115.478 249.2 111.418C249.225 111.128 249.174 110.836 249.051 110.572C248.928 110.308 248.738 110.081 248.5 109.913C247.835 109.43 246.771 108.674 245.476 107.813C244.776 107.365 244.027 106.896 243.222 106.413C242.781 106.154 242.326 105.902 241.864 105.657C238.029 103.799 234.091 102.163 230.069 100.757C229.313 100.484 228.536 100.218 227.773 99.98C227.01 99.742 226.373 99.553 225.708 99.371C222.726 98.573 220.318 98.097 220.318 98.097Z" fill="#871E35"/>
<path d="M236.992 129.149L238.525 129.541C237.514 130.519 236.282 131.239 234.934 131.641C233.394 132.102 231.755 132.126 230.202 131.711C228.827 131.43 227.569 130.742 226.59 129.737C226.178 129.273 225.864 128.729 225.669 128.139C225.474 127.549 225.402 126.926 225.456 126.307C225.558 124.836 225.973 123.404 226.674 122.107C227.488 120.522 228.583 119.099 229.908 117.907C231.101 116.788 232.54 115.964 234.108 115.499C235.519 115.095 237.011 115.071 238.434 115.429C239.518 115.663 240.499 116.236 241.234 117.067C241.913 117.889 242.258 118.936 242.2 120C242.147 121.226 241.814 122.423 241.227 123.5C240.487 124.936 239.414 126.175 238.098 127.112C236.397 128.337 234.808 128.757 233.338 128.386C233.184 128.364 233.035 128.311 232.902 128.23C232.768 128.15 232.652 128.043 232.561 127.917C232.453 127.655 232.453 127.36 232.561 127.098C231.835 127.564 230.958 127.732 230.111 127.567C229.747 127.494 229.412 127.316 229.148 127.055C228.885 126.793 228.703 126.46 228.627 126.097C228.463 125.14 228.654 124.157 229.166 123.332C229.839 122.013 230.795 120.858 231.966 119.951C233.413 118.817 234.736 118.399 235.935 118.698C236.314 118.761 236.656 118.962 236.896 119.261C237.136 119.561 237.258 119.939 237.237 120.322L237.895 119.433L239.792 119.916L235.592 125.691C235.417 125.914 235.256 126.148 235.109 126.391C235.048 126.495 235.019 126.614 235.025 126.734C235.032 126.771 235.05 126.805 235.076 126.833C235.102 126.86 235.135 126.879 235.172 126.888C235.57 126.913 235.967 126.821 236.313 126.622C237.093 126.288 237.805 125.814 238.413 125.222C239.063 124.617 239.607 123.907 240.023 123.122C240.359 122.555 240.578 121.927 240.666 121.274C240.754 120.62 240.709 119.956 240.534 119.321C240.156 118.173 239.204 117.408 237.678 117.025C236.435 116.696 235.123 116.73 233.898 117.123C232.618 117.549 231.456 118.268 230.503 119.223C229.492 120.198 228.646 121.33 227.997 122.576C227.422 123.632 227.112 124.811 227.094 126.013C227.079 126.507 227.164 126.998 227.345 127.458C227.525 127.917 227.797 128.336 228.144 128.687C228.931 129.416 229.897 129.924 230.944 130.157C232.003 130.441 233.108 130.503 234.192 130.339C235.202 130.156 236.159 129.749 236.992 129.149ZM231 123.724C230.687 124.222 230.533 124.803 230.559 125.39C230.577 125.567 230.65 125.734 230.768 125.867C230.886 126.001 231.043 126.093 231.217 126.132C231.511 126.201 231.819 126.187 232.106 126.09C232.394 125.996 232.668 125.862 232.918 125.691C233.457 125.316 233.941 124.866 234.353 124.354C234.828 123.812 235.239 123.218 235.578 122.583C235.865 122.118 235.995 121.573 235.949 121.029C235.927 120.845 235.848 120.673 235.722 120.537C235.596 120.401 235.431 120.309 235.249 120.273C234.753 120.182 234.242 120.279 233.814 120.546C233.192 120.904 232.645 121.38 232.204 121.946C231.742 122.495 231.338 123.091 231 123.724Z" fill="white"/>
<path d="M236.803 88.115C235.97 92.217 233.814 99.483 230.104 100.904C231.308 103.816 233.016 107.309 237.461 109.346C241.906 111.383 242.403 107.946 241.892 105.846C238.084 103.046 239.505 99.98 241.465 97.341L236.803 88.115Z" fill="#FFBE9D"/>
<path opacity="0.2" d="M238.7 91.867L241.458 97.306C240.99 97.9163 240.577 98.5676 240.226 99.252C238.707 98.342 237.223 95.64 237.755 93.876C237.946 93.1548 238.266 92.4741 238.7 91.867Z" fill="#24221E"/>
<path d="M247.996 88.269C252.385 88.591 256.27 77.643 249.865 76.369C245.546 75.508 245.588 78.091 245.133 80.919C244.678 83.747 245.217 88.066 247.996 88.269Z" fill="#24221E"/>
<path d="M237.3 82.725C236.173 88.185 235.235 91.321 237.195 94.821C240.149 100.078 247.443 99.42 250.187 94.408C252.651 89.893 254.086 81.724 249.41 78.154C248.382 77.3629 247.17 76.8475 245.887 76.6567C244.604 76.466 243.294 76.6063 242.081 77.0642C240.868 77.5222 239.791 78.2826 238.955 79.2733C238.118 80.2641 237.548 81.4522 237.3 82.725Z" fill="#FFBE9D"/>
<path d="M236.369 86.631C240.758 86.953 243.698 76.943 237.293 75.662C232.974 74.801 232.61 77.328 232.68 80.03C232.75 82.9 233.583 86.4 236.369 86.631Z" fill="#24221E"/>
<path d="M239.911 78.973C242.872 80.408 257.145 83.481 256.326 77.342C255.507 71.203 247.884 68.354 247.884 68.354C247.884 68.354 252.322 73.219 248.661 72.05C245 70.881 243.95 70.027 239.561 69.25C239.561 69.25 243.873 72.827 238.861 71.819C235.954 71.1921 232.917 71.6765 230.349 73.177C231.623 74.0333 232.639 75.2198 233.29 76.6094C233.941 77.999 234.202 79.5395 234.045 81.066C233.702 86.463 239.911 78.973 239.911 78.973Z" fill="#24221E"/>
<path d="M233.8 86.89C233.993 88.1602 234.676 89.304 235.704 90.075C237.048 91.062 238.273 89.928 238.364 88.29C238.441 86.813 237.839 84.517 236.264 84.188C234.689 83.859 233.59 85.308 233.8 86.89Z" fill="#FFBE9D"/>
<path d="M212.744 147.867L206.906 166.669L236.957 185.569C231.77 194.221 205.415 202.831 205.415 202.831L209.615 211.357C209.615 211.357 246.316 208.557 253.757 192.331C260.918 176.749 230.867 155.427 230.867 155.427L212.744 147.867Z" fill="#24221E"/>
<path opacity="0.2" d="M216.643 172.794L211.4 169.511L217.854 160.131C217.854 160.131 218.036 167.649 216.643 172.794Z" fill="#24221E"/>
<path opacity="0.2" d="M216.643 172.794L211.4 169.511L217.854 160.131C217.854 160.131 218.036 167.649 216.643 172.794Z" fill="#24221E"/>
<path d="M224.371 152.718C224.371 152.718 200.137 193.024 190.134 206.1C179.179 220.422 150.815 247.4 150.815 247.4L142.366 241.52C142.366 241.52 166.866 214.514 176.099 199.569C186.634 182.545 203.147 143.849 203.147 143.849L224.371 152.718Z" fill="#24221E"/>
<path d="M151.697 248.296L141.75 241.38L143.815 238.405L155.071 245.944L151.697 248.296Z" fill="#871E35"/>
<path d="M209.965 212.526L204.932 202.369L208.215 200.745L214.011 212.015L209.965 212.526Z" fill="#871E35"/>
<path d="M245.049 86.442C244.93 86.876 245.049 87.296 245.35 87.373C245.651 87.45 245.966 87.163 246.085 86.722C246.204 86.281 246.085 85.868 245.777 85.791C245.469 85.714 245.168 86.008 245.049 86.442Z" fill="#24221E"/>
<path d="M249.991 87.8C249.872 88.241 249.991 88.654 250.292 88.731C250.593 88.808 250.908 88.521 251.027 88.08C251.146 87.639 251.027 87.226 250.726 87.149C250.425 87.072 250.11 87.352 249.991 87.8Z" fill="#24221E"/>
<path d="M248.36 87.576C248.518 89.0555 248.879 90.5064 249.431 91.888C249.073 92.0194 248.691 92.0712 248.312 92.0398C247.932 92.0083 247.564 91.8944 247.233 91.706L248.36 87.576Z" fill="#E3AC1E"/>
<path d="M245.077 92.378C244.603 92.1886 244.172 91.9047 243.811 91.5437C243.45 91.1827 243.167 90.7521 242.977 90.278C242.968 90.2437 242.973 90.2072 242.99 90.1761C243.006 90.1449 243.035 90.1213 243.068 90.11C243.102 90.1007 243.137 90.1041 243.168 90.1196C243.199 90.1352 243.224 90.1617 243.236 90.194C243.451 90.7118 243.785 91.1718 244.21 91.5366C244.636 91.9014 245.142 92.1609 245.686 92.294C245.704 92.2972 245.72 92.304 245.735 92.3141C245.75 92.3242 245.762 92.3372 245.771 92.3525C245.781 92.3677 245.787 92.3847 245.789 92.4024C245.791 92.42 245.789 92.438 245.784 92.455C245.779 92.4722 245.771 92.4882 245.76 92.5021C245.749 92.516 245.735 92.5276 245.719 92.5361C245.704 92.5446 245.687 92.5498 245.669 92.5515C245.651 92.5532 245.633 92.5513 245.616 92.546C245.433 92.5029 245.253 92.4468 245.077 92.378Z" fill="#24221E"/>
<path d="M243.957 84.433C243.916 84.4131 243.88 84.3844 243.852 84.349C243.83 84.3217 243.814 84.2903 243.804 84.2566C243.795 84.2229 243.793 84.1877 243.797 84.153C243.802 84.1184 243.813 84.085 243.831 84.0549C243.849 84.0248 243.873 83.9986 243.901 83.978C244.229 83.7114 244.617 83.5273 245.031 83.4408C245.445 83.3544 245.873 83.3681 246.281 83.481C246.347 83.5062 246.401 83.556 246.431 83.62C246.461 83.684 246.465 83.7571 246.442 83.824C246.418 83.8895 246.37 83.943 246.307 83.9731C246.244 84.0033 246.172 84.0075 246.106 83.985C245.782 83.8985 245.442 83.8908 245.114 83.9627C244.787 84.0345 244.481 84.1838 244.223 84.398C244.185 84.4256 244.141 84.4433 244.094 84.4494C244.048 84.4555 244.001 84.4499 243.957 84.433Z" fill="#24221E"/>
<path d="M252.581 86.666C252.541 86.6489 252.506 86.622 252.479 86.5877C252.452 86.5535 252.434 86.513 252.427 86.47C252.375 86.1394 252.246 85.8258 252.048 85.5555C251.851 85.2852 251.592 85.0659 251.293 84.916C251.258 84.9046 251.226 84.8862 251.199 84.8618C251.171 84.8374 251.149 84.8077 251.134 84.7743C251.118 84.741 251.11 84.7049 251.109 84.6682C251.109 84.6316 251.116 84.5951 251.13 84.5613C251.144 84.5274 251.165 84.4968 251.191 84.4713C251.217 84.4459 251.249 84.4262 251.283 84.4135C251.318 84.4008 251.354 84.3954 251.391 84.3975C251.428 84.3997 251.463 84.4094 251.496 84.426C251.876 84.6103 252.206 84.8834 252.458 85.2221C252.71 85.5608 252.877 85.9552 252.945 86.372C252.952 86.4061 252.952 86.4412 252.945 86.4753C252.939 86.5094 252.925 86.5418 252.905 86.5706C252.886 86.5993 252.861 86.6238 252.831 86.6426C252.802 86.6614 252.769 86.6741 252.735 86.68C252.684 86.6931 252.629 86.6882 252.581 86.666Z" fill="#24221E"/>
<path d="M143.535 254.449C143.358 253.982 143.236 253.495 143.171 253C143.167 252.973 143.171 252.945 143.182 252.921C143.193 252.896 143.211 252.875 143.234 252.86C143.255 252.845 143.279 252.837 143.304 252.837C143.329 252.837 143.354 252.845 143.374 252.86C143.57 252.993 145.257 254.218 145.201 254.925C145.193 255.004 145.166 255.079 145.12 255.144C145.075 255.209 145.014 255.262 144.942 255.296C144.827 255.359 144.699 255.392 144.568 255.392C144.437 255.392 144.308 255.359 144.193 255.296C143.885 255.096 143.653 254.797 143.535 254.449ZM143.5 253.28C143.675 254.246 143.983 254.911 144.333 255.093C144.413 255.132 144.501 255.149 144.59 255.143C144.678 255.137 144.764 255.108 144.837 255.058C144.935 255.016 144.949 254.96 144.949 254.918C144.97 254.554 144.144 253.791 143.5 253.28Z" fill="#871E35"/>
<path d="M143.178 253C143.172 252.983 143.168 252.964 143.169 252.945C143.17 252.927 143.174 252.908 143.182 252.891C143.19 252.874 143.201 252.859 143.215 252.847C143.228 252.834 143.245 252.824 143.262 252.818C143.325 252.818 144.851 252.258 145.586 252.643C145.676 252.688 145.755 252.752 145.818 252.831C145.881 252.909 145.926 253 145.95 253.098C145.988 253.193 145.992 253.298 145.963 253.395C145.934 253.493 145.873 253.578 145.789 253.637C145.264 254.001 143.689 253.462 143.213 253.056C143.198 253.04 143.186 253.021 143.178 253ZM145.677 253.119C145.634 253.019 145.558 252.937 145.46 252.888C144.846 252.73 144.198 252.767 143.605 252.993C144.221 253.35 145.334 253.63 145.649 253.413C145.649 253.413 145.74 253.35 145.698 253.182L145.677 253.119Z" fill="#871E35"/>
<path d="M201.684 212.708C201.68 212.684 201.683 212.659 201.693 212.637C201.703 212.614 201.719 212.595 201.74 212.582C201.763 212.567 201.789 212.559 201.817 212.559C201.844 212.559 201.871 212.567 201.894 212.582C202.125 212.757 204.148 214.269 204.113 215.053C204.11 215.125 204.088 215.195 204.05 215.256C204.012 215.318 203.959 215.368 203.896 215.403C203.795 215.474 203.677 215.518 203.554 215.529C203.431 215.54 203.308 215.518 203.196 215.466C202.433 215.158 201.915 213.618 201.677 212.729L201.684 212.708ZM203.847 214.983C203.791 214.542 202.825 213.653 202.048 213.037C202.419 214.241 202.874 215.046 203.301 215.221C203.374 215.252 203.454 215.265 203.534 215.257C203.613 215.25 203.689 215.223 203.756 215.179C203.783 215.168 203.807 215.148 203.823 215.123C203.839 215.098 203.848 215.069 203.847 215.039V214.983Z" fill="#871E35"/>
<path d="M220.535 107.624L218.323 106.147C217.56 105.65 216.783 105.167 216.006 104.684C214.445 103.725 212.863 102.815 211.267 101.94C209.671 101.065 208.054 100.267 206.423 99.553C205.611 99.182 204.792 98.853 203.973 98.538L202.748 98.104L202.44 97.999L202.286 97.943C202.286 97.943 202.237 97.943 202.174 97.894C201.586 97.8441 200.995 97.8795 200.417 97.999C199.612 98.1469 198.817 98.3456 198.037 98.594C196.319 99.1413 194.629 99.7768 192.976 100.498C189.581 101.961 186.123 103.627 182.763 105.328L180.39 101.828C183.427 99.2424 186.664 96.9017 190.071 94.828C191.835 93.7539 193.666 92.793 195.552 91.951C196.575 91.5076 197.625 91.1289 198.695 90.817C199.983 90.4221 201.325 90.2354 202.671 90.264C203.113 90.2869 203.553 90.3407 203.987 90.425L204.316 90.502L204.512 90.551L204.897 90.649L206.437 91.048C207.445 91.349 208.46 91.65 209.426 92.021C211.368 92.7143 213.268 93.5183 215.117 94.429C216.958 95.311 218.743 96.291 220.486 97.327C221.347 97.859 222.208 98.398 223.055 98.958C223.902 99.518 224.714 100.078 225.624 100.757L220.535 107.624Z" fill="#FFBE9D"/>
<path d="M228.9 101.681C227.661 98.615 215.95 94.422 215.95 94.422L212.163 104.306C212.163 104.306 216.258 107.015 219.653 109.045C226.1 112.93 231.322 107.715 228.9 101.681Z" fill="#871E35"/>
<path d="M183.89 103.851L181.517 108.996L177.898 104.306C177.898 104.306 180.628 99.714 182.574 101.506L183.89 103.851Z" fill="#FFBE9D"/>
<path d="M176.512 110.613L174.678 106.497L177.898 104.306L181.517 108.996L176.512 110.613Z" fill="#FFBE9D"/>
</svg>
