<svg width="24" height="24" viewBox="0 0 24 24" fill="none" xmlns="http://www.w3.org/2000/svg">
<path fill-rule="evenodd" clip-rule="evenodd" d="M1.00347 3.31108C1.16576 3.14879 1.38587 3.05762 1.61538 3.05762H22.3846C22.6141 3.05762 22.8342 3.14879 22.9965 3.31108C23.1588 3.47337 23.25 3.69349 23.25 3.923V17.7692C23.25 18.6107 22.9157 19.4178 22.3206 20.0129C21.7256 20.6079 20.9185 20.9422 20.0769 20.9422H3.92308C3.08152 20.9422 2.27444 20.6079 1.67937 20.0129C1.08431 19.4178 0.75 18.6107 0.75 17.7692V3.923C0.75 3.69349 0.841174 3.47337 1.00347 3.31108ZM3.54155 4.78839L12.0001 13.2469L20.4586 4.78839H3.54155ZM21.5192 5.84911V17.7692C21.5192 18.5653 20.8731 19.2115 20.0769 19.2115H3.92308C3.12692 19.2115 2.48077 18.5653 2.48077 17.7692V5.84892L11.4698 14.8379C11.7627 15.1308 12.2375 15.1308 12.5304 14.8379L21.5192 5.84911Z" fill="#871E35"/>
</svg>
